<?xml version="1.0" encoding="UTF-8"?>
<svg id="Layer_1" data-name="Layer 1" xmlns="http://www.w3.org/2000/svg" version="1.1" viewBox="0 0 300 58">
  <defs>
    <style>
      .cls-1 {
        fill: #fff;
        stroke-width: 0px;
      }
    </style>
  </defs>
  <g>
    <path class="cls-1" d="M258,39.1l3.4,12.6h-6.2l-.4-2.3h-2.2l-.4,2.3h-6.1l3-12.6h8.9ZM254.8,47.2c-.2-1.5-.6-3.3-.9-5.3-.5,1.8-.8,3.5-1.1,5.3h2Z"/>
    <path class="cls-1" d="M281.1,39.1v12.6h-5.2v-8.5l-2.1,8.5h-3.6l-2.2-8.4v8.4h-5.2v-12.6h7.7c.2.7.5,1.7.7,2.7l.9,3.3,1.3-5.9h7.7Z"/>
    <path class="cls-1" d="M296.2,39.1v8.5c0,.7,0,1.4-.1,2.1-.2.5-.6.9-1,1.2-.7.4-1.4.7-2.2,1-1.1.3-2.2.4-3.3.4s-2.4,0-3.6-.4c-.9-.2-1.7-.5-2.4-1-.5-.3-.8-.8-1-1.3-.1-.9-.2-1.9-.1-2.8v-7.5h6.1v9.3c0,.4,0,.7.1,1.1.2.2.5.3.7.2.3,0,.5,0,.7-.2.1-.4.2-.8.1-1.2v-9.3h6Z"/>
    <polygon class="cls-1" points="267.6 15.1 272 2 276.2 15.1 290.5 15.1 279 23.6 283.4 37 272 28.8 260.5 37 264.9 23.6 253.3 15.1 267.6 15.1"/>
  </g>
  <g>
    <g id="Gruppe_103" data-name="Gruppe 103">
      <path id="Pfad_242" data-name="Pfad 242" class="cls-1" d="M7.5,21.6l-.3-1.6q0-.1,0-.1h-2q0,0,0,.1l-.3,1.6c0,.1,0,.2-.2.2h-1.9c0,0-.2-.1-.2-.2l2.4-11.1c0-.1,0-.2.2-.2h2.2c0,0,.2.1.2.2h0l2.4,11.1h0c0,.2-.1.2-.2.2h-2s0-.1,0-.2h0M5.4,18.2h1.5q0,0,0-.1l-.8-4.5h0l-.8,4.6c0,0,0,0,0,0"/>
    </g>
    <path class="cls-1" d="M11.9,21.8h30.7c0,0,.2-.1.2-.1l3.7-11c0-.1,0-.3-.2-.3H11.9c-.1,0-.2.1-.2.2v11.1s.1.1.2.1Z"/>
    <g>
      <g id="Gruppe_111" data-name="Gruppe 111">
        <path id="Pfad_250" data-name="Pfad 250" class="cls-1" d="M8,25.6c.5.3.9.7,1.1,1.2.3.6.4,1.2.4,1.8,0,1-.3,1.8-.8,2.4s-1.3.9-2.1.9h-1.3s0,0,0,.1h0v4.4q0,0,0,0h0c0,0-1.9,0-1.9,0q0,0,0,0h0v-11.1q0-.1,0-.1t0-.1h3.3c.6,0,1.1.1,1.6.4M6.9,29.8c.2-.3.3-.6.3-1.1s0-.9-.3-1.1c-.2-.3-.6-.4-.9-.4h-.7s0,0,0,.1h0v2.9s0,.1,0,.1h.7c.3,0,.7-.2.9-.5"/>
      </g>
      <path class="cls-1" d="M11.9,36.7h25.8c0,0,.2,0,.2,0l.8-2.4c0,0,0-.2,0-.2l-12.3-8.6h-14.4c-.1,0-.2.1-.2.2v11.1c0-.1.1,0,.2,0Z"/>
    </g>
    <g>
      <g id="Gruppe_117" data-name="Gruppe 117">
        <path id="Pfad_256" data-name="Pfad 256" class="cls-1" d="M3.8,50.8c-.6-.6-.9-1.4-.9-2.4v-8q0,0,0,0h0c0,0,1.9,0,1.9,0q0,0,0,0h0v8.3c0,.3,0,.6.3.9.2.2.4.3.7.3s.5,0,.7-.3.3-.5.3-.9v-8.2q0,0,0,0h0c0,0,1.9,0,1.9,0q.1,0,.1,0h.1v8.1c0,1-.3,1.8-.9,2.5-.6.6-1.4.9-2.4.9s-1.8-.4-2.4-1"/>
      </g>
      <path class="cls-1" d="M36.3,40.2H11.9c-.1,0-.2,0-.2.2v11c0,0,.1.2.2.2h20.8c0,0,.2,0,.2,0l3.7-11c0-.2,0-.3-.3-.3Z"/>
      <path class="cls-1" d="M51.5,40.2l-15.7,11.1c-.2,0,0,.4,0,.4h15.7c0,0,.2,0,.2-.2v-11.2c.1,0,0-.2-.3,0Z"/>
    </g>
  </g>
  <g>
    <path class="cls-1" d="M83.9,25v-.6c1.3-.2,1.6-.3,1.3-1.2-.2-.9-.7-2.1-1.2-3.4h-4.8c-.3,1-.7,2-.9,2.9-.5,1.3-.3,1.7,1.3,1.8v.5h-4.8v-.6c1.3-.2,1.7-.3,2.5-2.3l4.6-11.6.7-.2c1.4,3.8,2.9,8,4.3,11.9.7,1.9,1,2.1,2.5,2.3v.6h-5.5ZM81.7,13.2h0c-.7,1.9-1.4,3.8-2.2,5.7h4l-1.8-5.7Z"/>
    <path class="cls-1" d="M102.5,25v-.6c1.3-.1,1.6-.2,1.6-1.8v-3.7c0-1.6-.5-2.6-2-2.6-.9.1-1.8.5-2.5,1.1,0,.3,0,.5,0,.9v4.4c0,1.3.2,1.6,1.4,1.7v.6h-4.8v-.6c1.3-.1,1.5-.2,1.5-1.7v-3.8c0-1.7-.6-2.6-2-2.6-.9.1-1.7.5-2.4,1.1v5.2c0,1.5.2,1.6,1.2,1.7v.6h-4.7v-.6c1.4-.1,1.7-.3,1.7-1.7v-4.6c0-1.4,0-1.6-1.3-1.8v-.5c1.1-.2,2.1-.5,3.1-.9v1.8c.5-.4,1.1-.8,1.7-1.1.6-.4,1.2-.6,1.9-.6,1.1,0,2.1.8,2.5,1.9.6-.5,1.2-.9,1.9-1.2.5-.4,1.1-.6,1.7-.6,1.8,0,2.8,1.2,2.8,3.4v4.2c0,1.4.2,1.6,1.4,1.7v.6h-4.9c0,.1.1.1.1.1Z"/>
    <path class="cls-1" d="M116.4,23.1c-.8,1.2-2.2,2-3.6,2.2-2.7,0-4.4-2.2-4.4-4.8s.5-2.8,1.5-3.8c.8-1,2-1.6,3.2-1.7h0c1.8.1,3.3,1.6,3.3,3.4s0,.6-.5.7-3.1.3-5.8.4c0,3,1.8,4.2,3.3,4.2s1.9-.4,2.5-1.1l.5.5ZM112.7,15.9c-1,0-2,.9-2.3,2.7,1.2,0,2.5,0,3.7-.1.4,0,.5-.1.5-.4,0-1.1-.7-2.1-1.8-2.2,0,0,0,0,0,0Z"/>
    <path class="cls-1" d="M121.2,17.5c.6-1.1,1.7-2.4,2.7-2.4s1.2.5,1.2,1.1-.3.9-.7,1c-.2.1-.4.1-.6,0-.2-.3-.6-.4-.9-.4-.6,0-1.2.6-1.8,1.9v4c0,1.4,0,1.6,1.9,1.8v.6h-5.1v-.6c1.3-.1,1.6-.3,1.6-1.8v-4.6c0-1.4,0-1.5-1.3-1.8v-.5c1.1-.2,2.1-.5,3.1-.9v2.6h0Z"/>
    <path class="cls-1" d="M126.1,25v-.6c1.3-.1,1.6-.3,1.6-1.8v-4.5c0-1.3,0-1.4-1.3-1.7v-.5c1.1-.2,2.1-.4,3.1-.8v7.7c0,1.6.1,1.7,1.6,1.8v.6h-4.9v-.2h-.1ZM127.3,12.1c0-.6.5-1.1,1.1-1.1s1.1.5,1.1,1.1-.5,1.1-1.1,1.1c-.6-.1-1-.5-1.1-1.1"/>
    <path class="cls-1" d="M140.5,23.1c-.9,1.2-2.5,2.3-3.7,2.3-2.5,0-4.5-2-4.5-4.5v-.2c0-1.7.8-3.3,2.2-4.4.9-.8,2.1-1.2,3.3-1.2h0c.7,0,1.4.2,2,.6.3.2.3.4.3.7-.1.4-.3.8-.7.9-.1,0-.2-.1-.4-.2-.6-.6-1.4-.9-2.2-.9-1.4,0-2.8,1.2-2.8,3.5s2.1,4.1,3.3,4.1,2-.5,2.7-1.3l.5.6Z"/>
    <path class="cls-1" d="M148.6,25.3c-.4,0-.7-.2-1-.4-.3-.3-.5-.6-.5-1-.9.6-2,1.4-2.6,1.4-1.5,0-2.7-1.2-2.7-2.7s.7-1.9,1.8-2.2c1.2-.3,2.4-.8,3.4-1.5v-.4c0-1.5-.7-2.5-1.9-2.5s-.8.2-1,.4c-.4.4-.6.9-.6,1.4-.1.4-.3.5-.6.5-.5,0-.9-.4-.9-.9s.3-.6.7-.9c1-.7,2.1-1.2,3.3-1.6.7,0,1.3.2,1.9.6.7.7,1.1,1.7,1,2.7v4.1c0,1,.4,1.3.7,1.3s.6-.1.8-.2l.2.6-2,1.3ZM146.9,19.7c-.5.2-1.5.7-2,.9-.8.4-1.3.8-1.3,1.7s.7,1.6,1.6,1.7h0c.7-.1,1.3-.4,1.8-.8v-3.5h-.1Z"/>
    <path class="cls-1" d="M157.4,25v-.6c1.3-.1,1.5-.3,1.5-1.9v-3.7c0-1.5-.5-2.5-2-2.5-.9.1-1.8.5-2.4,1.1v5.2c0,1.6.1,1.6,1.4,1.8v.6h-4.8v-.6c1.5-.1,1.7-.3,1.7-1.8v-4.5c0-1.4-.1-1.4-1.3-1.7v-.5c1.1-.2,2.1-.5,3.1-.9v1.8c.4-.3.9-.6,1.4-1s1.2-.6,1.9-.6c1.8,0,2.9,1.2,2.9,3.4v4.2c0,1.6.1,1.6,1.3,1.8v.6h-4.8v-.2h.1Z"/>
    <path class="cls-1" d="M174,10.6c1.3-.1,2.6.3,3.7.9,1,.7,1.5,1.9,1.4,3.1,0,2.9-2.2,4.2-4.3,4.6h-1l-1.7-.4v3.5c0,1.9.2,2,2.2,2.2v.6h-6v-.6c1.8-.1,2-.3,2-2.2v-8.9c0-2-.2-2.1-1.9-2.2v-.6s5.6,0,5.6,0ZM172.2,18.1c.5.2,1.1.3,1.7.3,1.5,0,3.2-.7,3.2-3.6.2-1.7-1.1-3.2-2.8-3.4h-.5c-.4-.1-.9.1-1.2.3-.2.1-.2.4-.2,1v5.4h-.2Z"/>
    <path class="cls-1" d="M191.5,24.5l-1.7.3c-.6.1-1.1.3-1.6.4h-.1v-1.7c-.5.4-1,.7-1.7,1.1-.5.3-1.1.5-1.7.5-1.4,0-2.7-.9-2.7-3.3v-4.4c0-1.1-.2-1.2-.7-1.4h-.6v-.6c.5,0,1-.1,1.6-.2.5-.1,1-.2,1.5-.2-.1,1.1-.1,2.1-.1,3.2v3c0,2,.9,2.5,2,2.5s1.8-.4,2.4-1v-5.2c0-1.2-.2-1.3-.9-1.4h-.8v-.6c.7,0,1.3-.1,2-.2.6-.1,1.1-.1,1.5-.2v7.6c0,1.1.2,1.3,1,1.3h.6v.5h0Z"/>
    <path class="cls-1" d="M196.8,15.3c.3-.2.6-.2.9-.2,2.5.1,4.4,2.2,4.4,4.7s-2.5,5.6-5.6,5.6h0c-1.1,0-2.2-.3-3.2-.8v-12.4c0-1.3,0-1.5-1.4-1.7v-.5c1.1-.1,2.2-.4,3.2-.7v6.8l1.7-.8ZM195.1,22.4c0,.2,0,.5.1.7.3.8,1.1,1.3,2,1.2,1.9,0,3-1.5,3-4.1s-1.6-3.9-3.4-3.9-1.2.2-1.8.4v5.7s0,0,0,0Z"/>
    <path class="cls-1" d="M203.1,25v-.6c1.3-.1,1.5-.3,1.5-1.8v-10.3c0-1.6-.1-1.6-1.5-1.7v-.5c1.1-.2,2.2-.4,3.3-.7v13.5c0,1.4.2,1.5,1.6,1.8v.6h-4.9v-.3h0Z"/>
    <path class="cls-1" d="M209.1,25v-.6c1.3-.1,1.6-.3,1.6-1.8v-4.5c0-1.3-.1-1.4-1.3-1.7v-.5c1.1-.2,2.1-.4,3.1-.8v7.7c0,1.6.1,1.7,1.6,1.8v.6h-4.9v-.2h-.1ZM210.3,12.1c0-.6.5-1.1,1.1-1.1s1.1.5,1.1,1.1-.5,1.1-1.1,1.1h0c-.6,0-1.1-.5-1.1-1.1"/>
    <path class="cls-1" d="M223.4,23.1c-.9,1.2-2.5,2.3-3.7,2.3-2.5,0-4.5-2-4.5-4.5v-.2c0-1.7.8-3.3,2.2-4.4.9-.8,2.1-1.2,3.3-1.2h0c.7,0,1.4.2,2,.6.3.2.3.4.3.7-.1.4-.3.8-.7.9-.1,0-.2-.1-.4-.2-.6-.6-1.4-.9-2.2-.9-1.4,0-2.8,1.2-2.8,3.5s2.1,4.1,3.3,4.1,2-.5,2.7-1.3l.5.6Z"/>
    <path class="cls-1" d="M88.8,38.7c-1.2,0-1.8.4-1.9,1.3,0,1.1,0,2.3,0,3.4v1.8c0,2.5-.4,4.2-1.6,5.5-1,1-2.3,1.5-3.7,1.4-1.2,0-2.4-.3-3.3-1-1.2-.9-1.9-2.5-1.9-5v-5.2c0-1.9-.2-2-1.9-2.1v-.6h5.4v.6c-1.6,0-1.8.2-1.8,2.1v4.8c0,3.3,1.3,5.3,3.9,5.3s3.9-2.5,3.9-5.9v-1.5c0-2,0-2.8,0-3.4,0-.8-.5-1-2.1-1.1v-.6h5v.4l.2-.2Z"/>
    <path class="cls-1" d="M94.8,51.6v-.5c1.3,0,1.3-.3,1.3-1.8v-3.5c0-1.4-.5-2.4-1.9-2.4-.9,0-1.7.4-2.3,1v4.9c0,1.5,0,1.5,1.3,1.7v.6h-4.6v-.5c1.4,0,1.5-.2,1.5-1.7v-4.4c0-1.3,0-1.3-1.2-1.7v-.5c1-.2,2-.4,2.9-.8v1.7c.4-.3.9-.6,1.3-.9.5-.4,1.1-.6,1.8-.6,1.7,0,2.7,1.1,2.7,3.2v4.1c0,1.4,0,1.4,1.3,1.7v.5h-4.1Z"/>
    <path class="cls-1" d="M100.4,51.6v-.5c1.3,0,1.4-.2,1.4-1.7v-4.4c0-1.2,0-1.3-1.3-1.5v-.5c1-.2,2-.4,3-.8v7.1c0,1.5,0,1.6,1.4,1.7v.6h-4.5ZM101.4,39.4c0-.6.5-1,1-1s1,.4,1,.9h0c0,.7-.5,1.1-1,1.1h0c-.5,0-1-.4-1-1"/>
    <path class="cls-1" d="M115.1,43c-1,0-1.2.3-1.9,1.6-.7,1.5-1.8,4.1-2.9,7.3h-.5c-.9-2.5-1.9-4.9-2.9-7.3-.5-1.2-.6-1.3-1.8-1.6v-.5h4.2v.5c-1.1,0-1.1.3-.8,1.2.5,1.4,1.3,3.6,2,5.2.7-1.8,1.3-3.6,1.9-5,.3-1,.2-1.2-1-1.3v-.5h3.7v.4h0Z"/>
    <path class="cls-1" d="M122.8,49.9c-.8,1.1-2,1.9-3.4,2.1-2.6,0-4-2.1-4-4.5s.5-2.6,1.3-3.6c.7-.9,1.8-1.5,3-1.6h0c1.7,0,3.1,1.5,3.1,3.2s0,.6-.5.6c-1.8.2-3.7.3-5.5.3,0,2.8,1.7,4,3.1,4s1.8-.4,2.4-1l.5.5ZM119.2,43c-.9,0-1.9.8-2.2,2.6,1.1,0,2.3,0,3.5,0,.4,0,.5,0,.5-.4,0-1-.6-1.9-1.6-2.1h-.2Z"/>
    <path class="cls-1" d="M127.3,44.5c.6-1,1.6-2.2,2.5-2.2s1.2.4,1.3,1c0,.4-.3.8-.6,1-.2,0-.4,0-.5,0-.2-.3-.5-.4-.8-.4-.5,0-1.2.6-1.7,1.8v3.8c0,1.3,0,1.5,1.7,1.7v.4h-4.8v-.5c1.2,0,1.4-.2,1.4-1.7v-4.4c0-1.3,0-1.4-1.2-1.7v-.3c1-.2,2-.4,2.9-.8l-.2,2.3h0Z"/>
    <path class="cls-1" d="M137.2,45c-.4-1.2-1.1-2.1-2.2-2.1s-1.3.6-1.3,1.3h0c0,1,.8,1.5,1.8,2,1.6.6,2.6,1.3,2.6,2.8s-1.8,2.9-3.4,2.9-1.7-.2-2.4-.7c-.2-.8-.3-1.6-.3-2.5h.5c.4,1.2,1.3,2.5,2.6,2.5s1.4-.7,1.4-1.5-.6-1.4-1.7-1.9c-1.2-.6-2.6-1.2-2.6-2.9s1.2-2.7,3.2-2.7,1.3,0,1.9.3c.2.7.4,1.5.4,2.3l-.5.2Z"/>
    <path class="cls-1" d="M139.3,51.6v-.5c1.3,0,1.4-.2,1.4-1.7v-4.4c0-1.2-.1-1.3-1.3-1.5v-.5c1-.2,2-.4,3-.8v7.1c0,1.5.1,1.6,1.4,1.7v.6h-4.5ZM140.5,39.4c0-.6.5-1,1-1s1,.4,1,.9h0c0,.7-.5,1.1-1,1.1s-1-.4-1-1"/>
    <path class="cls-1" d="M148.9,51.6c-.2.2-.5.3-.8.3-1.3,0-2.1-.8-2.1-2.5v-6.1h-1.4v-.2c-.1,0,.4-.6.4-.6h.9v-1.5l1.3-1.4h.3v2.9h2.4c.2.3.1.6-.1.8h-2.3v5.4c0,1.7.7,2,1.2,2s.9,0,1.2-.3l.2.5-1.2.7Z"/>
    <path class="cls-1" d="M160.5,43c-1.1.2-1.2.3-1.9,1.6-.6,1.2-1.1,2.8-2.6,6.3-.8,1.9-1.6,3.8-2.2,5.7-.1.3-.3.5-.6.5-.6,0-1.1-.4-1.1-1s.2-.5.5-.7c.7-.5,1.2-1.1,1.5-1.9.3-.5.5-.9.6-1.4.1-.3.1-.6,0-.9-.8-2.4-1.8-4.9-2.4-6.4-.4-1.1-.6-1.4-1.8-1.6v-.5h4.2v.5c-.9.2-1,.4-.8,1.1l1.9,5.3c.6-1.4,1.4-3.8,2-5.2.2-.8.1-1-1-1.1v-.5h3.7v.2h0Z"/>
    <path class="cls-1" d="M172.7,41.3c-.4-1.3-.9-2.8-2.7-2.8-1.2,0-2.2.9-2.3,2.1v.2c0,1.5,1,2.3,2.7,3.1s3.6,1.9,3.6,4.1-1.9,3.9-4.7,3.9-1.4,0-2.1-.3c-.5-.2-.8-.3-1-.4-.3-1.1-.4-2.1-.5-3.2h.6c.3,1.1,1.2,3.3,3.4,3.3,1.3,0,2.4-.8,2.5-2.1v-.4c0-1.6-1.1-2.3-2.7-3.1-1.3-.7-3.4-1.8-3.4-4.1s1.7-3.7,4.2-3.7,1.8.2,2.6.5c.1.7.2,1.6.3,2.9h-.5Z"/>
    <path class="cls-1" d="M184.3,43c-1.1.2-1.2.3-1.9,1.6-.6,1.2-1.1,2.8-2.6,6.3-1.3,3.3-1.9,4.6-2.2,5.7-.1.3-.3.5-.6.5-.6,0-1.1-.4-1.1-1s.2-.5.5-.7c.7-.5,1.2-1.1,1.6-1.9.3-.5.5-.9.6-1.4.1-.3.1-.6,0-.9-.8-2.4-1.8-4.9-2.4-6.4-.4-1.1-.6-1.4-1.8-1.6v-.5h4.3v.5c-.9.2-1,.4-.8,1.1l1.9,5.3c.6-1.4,1.4-3.8,2-5.2.2-.8.1-1-1-1.1v-.5h3.7v.2h-.2Z"/>
    <path class="cls-1" d="M190,45c-.4-1.2-1.1-2.1-2.2-2.1s-1.3.6-1.4,1.3h0c0,1,.8,1.5,1.8,2,1.6.6,2.6,1.3,2.6,2.8s-1.8,2.9-3.4,2.9-1.7-.2-2.4-.7c-.2-.8-.3-1.6-.3-2.5h.5c.4,1.2,1.3,2.5,2.6,2.5s1.4-.7,1.4-1.5-.6-1.4-1.7-1.9c-1.2-.6-2.6-1.2-2.6-2.9s1.2-2.7,3.2-2.7,1.3,0,1.9.3c.2.7.4,1.5.4,2.3l-.4.2Z"/>
    <path class="cls-1" d="M196.2,51.6c-.3.2-.5.3-.8.3-1.3,0-2.1-.8-2.1-2.5v-6.1h-1.4v-.2c-.1,0,.4-.6.4-.6h.9v-1.5l1.3-1.4h.3v2.9h2.4c.2.2.1.6-.1.8h-2.1v5.4c0,1.7.7,2,1.3,2s.9,0,1.2-.3l.2.5-1.5.7Z"/>
    <path class="cls-1" d="M206,49.9c-.8,1.1-2,1.9-3.4,2.1-2.6,0-4-2.1-4-4.5s.5-2.6,1.3-3.6c.7-.9,1.8-1.5,3-1.6h0c1.7,0,3.1,1.5,3.1,3.2s-.1.6-.5.6c-1.8.2-3.7.3-5.5.3,0,2.8,1.7,4,3.1,4s1.8-.4,2.4-1l.5.5ZM202.4,43c-.9,0-1.9.8-2.2,2.6,1.1,0,2.3,0,3.5,0,.4,0,.5,0,.5-.4.2-1.1-.7-2-1.8-2.1Z"/>
    <path class="cls-1" d="M218.7,51.6v-.5c1.3,0,1.5-.2,1.5-1.7v-3.5c0-1.4-.5-2.4-1.9-2.4-.9,0-1.7.4-2.4,1,0,.2.1.5.1.8v4.1c0,1.3.2,1.5,1.3,1.6v.5h-4.5v-.5c1.2,0,1.4-.2,1.4-1.6v-3.6c0-1.5-.5-2.4-1.9-2.4-.9,0-1.7.4-2.3,1v4.9c0,1.3.2,1.4,1.1,1.6v.6h-4.1v-.5c1.3,0,1.6-.2,1.6-1.6v-4.3c0-1.3-.1-1.4-1.2-1.7v-.4c1-.2,2-.5,2.9-.8v1.7c.4-.3.9-.6,1.6-1,.5-.3,1.1-.5,1.8-.5,1.1,0,2,.7,2.3,1.8.6-.4,1.2-.8,1.8-1.1.4-.3,1-.5,1.5-.5,1.7,0,2.7,1.1,2.7,3.2v4c0,1.3.2,1.4,1.3,1.6v.4l-4.6-.2Z"/>
    <rect class="cls-1" x="74.4" y="32.6" width="149" height=".2"/>
  </g>
</svg>