<?xml version="1.0" encoding="UTF-8"?>
<svg id="Ebene_1" data-name="Ebene 1" xmlns="http://www.w3.org/2000/svg" version="1.1" viewBox="0 0 630.5 226.8">
  <defs>
    <style>
      .cls-1 {
        fill: #fff;
        stroke-width: 0px;
      }
    </style>
  </defs>
  <g>
    <path class="cls-1" d="M602,160.5v1.1c0,.2,0,.3-.3.3h-4.9c0,0-.1,0-.1.1v15.7c0,.2,0,.3-.3.3h-1.3c-.2,0-.3,0-.3-.3v-15.7c0,0,0-.1-.1-.1h-4.7c-.2,0-.3,0-.3-.3v-1.1c0-.2,0-.3.3-.3h11.7c.2,0,.3,0,.3.3Z"/>
    <path class="cls-1" d="M617.2,160.2h1.3c.2,0,.3,0,.3.3v17.1c0,.2,0,.3-.3.3h-1.3c-.2,0-.3,0-.3-.3v-14c0,0,0,0,0-.1,0,0,0,0,0,0l-4.1,6.3c0,.1-.2.2-.3.2h-.7c-.1,0-.2,0-.3-.2l-4.1-6.3c0,0,0,0,0,0,0,0,0,0,0,.1v13.9c0,.2,0,.3-.3.3h-1.3c-.2,0-.3,0-.3-.3v-17.1c0-.2,0-.3.3-.3h1.3c.1,0,.2,0,.3.2l4.7,7.2s0,0,0,0,0,0,0,0l4.7-7.2c0-.1.2-.2.3-.2Z"/>
  </g>
  <g id="Gruppe_111" data-name="Gruppe 111">
    <path id="Pfad_250" data-name="Pfad 250" class="cls-1" d="M33.7,86.4c2.4,1.5,4.3,3.7,5.5,6.3,1.3,2.9,2,6,2,9.2,0,5.2-1.4,9.3-4.2,12.4-2.8,3.1-6.4,4.7-10.9,4.7h-6.3c-.2,0-.4.1-.4.3,0,0,0,0,0,.1v22.2c0,.3-.1.5-.3.7-.2.2-.4.3-.7.3h-9.8c-.3,0-.5-.1-.7-.3-.2-.2-.3-.4-.3-.7v-56.5c0-.3.1-.5.3-.7.2-.2.4-.3.7-.3h16.8c2.9,0,5.7.7,8.2,2.3M27.8,107.8c1.1-1.4,1.6-3.2,1.6-5.6s-.5-4.4-1.6-5.8c-1-1.4-2.6-2.1-4.3-2.1h-3.7c-.2,0-.4.1-.4.3,0,0,0,0,0,.1v14.7c0,.2.1.4.3.4,0,0,0,0,.1,0h3.7c1.7,0,3.3-.7,4.3-2"/>
  </g>
  <g id="Gruppe_112" data-name="Gruppe 112">
    <path id="Pfad_251" data-name="Pfad 251" class="cls-1" d="M50.9,138.5c-3-3.1-4.5-7.3-4.5-12.6v-40.8c0-.3.1-.5.3-.7.2-.2.4-.3.7-.3h9.8c.3,0,.5,0,.7.3.2.2.3.4.3.7v42c0,1.6.4,3.1,1.3,4.3.8,1.1,2.1,1.7,3.5,1.7,1.4,0,2.6-.6,3.5-1.7.9-1.3,1.4-2.8,1.3-4.3v-42c0-.3.1-.5.3-.7.2-.2.4-.3.7-.3h9.8c.3,0,.5.1.7.3.2.2.3.4.3.7v40.8c0,5.2-1.5,9.4-4.5,12.6-3,3.1-7,4.7-12,4.7-5,0-9-1.6-12.1-4.7"/>
  </g>
  <g id="Gruppe_113" data-name="Gruppe 113">
    <path id="Pfad_252" data-name="Pfad 252" class="cls-1" d="M114.9,138.4c-3.1,2.8-7.1,4.2-12.1,4.2h-15.8c-.3,0-.5-.1-.7-.3-.2-.2-.3-.4-.3-.7v-56.4c0-.3.1-.5.3-.7.2-.2.4-.3.7-.3h13.9c5.6,0,9.9,1.3,13.1,4,3.1,2.7,4.7,6.6,4.7,11.9,0,5.5-1.9,9.5-5.7,12-.2.2-.3.3,0,.5,4.4,3.1,6.6,7.7,6.6,13.8s-1.6,9.2-4.7,11.9M97.8,94.7v13.1c0,.2.1.4.3.4,0,0,0,0,.1,0h3c1.9,0,3.4-.6,4.4-1.8,1.1-1.2,1.6-2.9,1.6-5,0-2.3-.5-4-1.5-5.3-1-1.2-2.5-1.8-4.5-1.8h-3c-.2,0-.4.1-.4.3,0,0,0,0,0,.1M106.2,130.4c1.1-1.3,1.6-3.2,1.6-5.7s-.5-4.4-1.6-5.8c-1-1.4-2.6-2.2-4.3-2.2h-3.8c-.2,0-.4.1-.4.3,0,0,0,0,0,.1v14.8c0,.2.1.4.3.4,0,0,0,0,.1,0h3.7c1.7,0,3.3-.7,4.3-2"/>
  </g>
  <g id="Gruppe_114" data-name="Gruppe 114">
    <path id="Pfad_253" data-name="Pfad 253" class="cls-1" d="M125.5,142.3c-.2-.2-.3-.4-.3-.7v-56.4c0-.3.1-.5.3-.7.2-.2.4-.3.7-.3h9.8c.3,0,.5.1.7.3.2.2.3.4.3.7v46.9c0,.2.1.4.3.4,0,0,0,0,.1,0h17.5c.5,0,1,.4,1,1,0,0,0,0,0,0v8.1c0,.6-.4,1-1,1,0,0,0,0,0,0h-28.7c-.3,0-.5-.1-.7-.3"/>
  </g>
  <g id="Gruppe_115" data-name="Gruppe 115">
    <path id="Pfad_254" data-name="Pfad 254" class="cls-1" d="M161,142.3c-.2-.2-.3-.4-.3-.7v-56.4c0-.3.1-.5.3-.7.2-.2.4-.3.7-.3h9.8c.3,0,.5.1.7.3.2.2.3.4.3.7v56.4c0,.6-.4,1-1,1,0,0,0,0,0,0h-9.8c-.3,0-.5-.1-.7-.3"/>
  </g>
  <g id="Gruppe_116" data-name="Gruppe 116">
    <path id="Pfad_255" data-name="Pfad 255" class="cls-1" d="M183.6,138.8c-3-3-4.5-7-4.5-12v-27c0-4.9,1.5-8.9,4.5-11.8,3-2.9,7-4.4,12.1-4.4,5.1,0,9.1,1.5,12.1,4.4,3,2.9,4.5,6.9,4.5,11.8v.9c0,.3-.1.5-.3.7-.2.2-.4.3-.7.3l-9.8.4c-.7,0-1-.3-1-.9v-2.2c0-1.4-.4-2.8-1.3-3.9-.9-1-2.2-1.6-3.6-1.5-1.3,0-2.6.5-3.5,1.5-.9,1.1-1.4,2.5-1.3,3.9v28.8c0,1.4.4,2.8,1.3,3.9.9,1,2.2,1.5,3.5,1.5,1.4,0,2.7-.5,3.6-1.5.9-1.1,1.4-2.5,1.3-3.9v-2.3c0-.5.4-1,1-1,0,0,0,0,0,0l9.8.4c.6,0,1,.4,1,1,0,0,0,0,0,0v.8c0,5-1.5,9-4.6,12-3.1,3-7.1,4.5-12.1,4.5-5,0-9-1.5-12.1-4.5"/>
  </g>
  <g id="Gruppe_153" data-name="Gruppe 153">
    <g id="Gruppe_117" data-name="Gruppe 117">
      <path id="Pfad_256" data-name="Pfad 256" class="cls-1" d="M12.1,214.6c-3-3.1-4.5-7.3-4.5-12.6v-40.8c0-.3.1-.5.3-.7.2-.2.4-.3.7-.3h9.8c.3,0,.5.1.7.3.2.2.3.4.3.7v42c0,1.6.4,3.1,1.3,4.3.8,1.1,2.1,1.7,3.5,1.7,1.4,0,2.6-.6,3.5-1.7.9-1.3,1.4-2.8,1.3-4.3v-42c0-.3.1-.5.3-.7.2-.2.4-.3.7-.3h9.8c.3,0,.5.1.7.3.2.2.3.4.3.7v40.8c0,5.2-1.5,9.4-4.5,12.6-3,3.1-7,4.7-12,4.7-5,0-9-1.6-12.1-4.7"/>
    </g>
    <g id="Gruppe_118" data-name="Gruppe 118">
      <path id="Pfad_257" data-name="Pfad 257" class="cls-1" d="M71.9,160.5c.2-.2.4-.3.7-.3h9.7c.3,0,.5,0,.7.3.2.2.3.4.3.7v56.4c0,.6-.4,1-1,1h-11c-.5,0-1-.3-1.1-.8l-10.3-32.3c0-.2-.2-.2-.3-.2-.1,0-.2.2-.2.3v32c0,.3,0,.5-.2.7-.2.2-.4.3-.7.3h-9.7c-.3,0-.5-.1-.7-.3-.2-.2-.3-.4-.3-.7v-56.4c0-.3.1-.5.3-.7.2-.2.4-.3.7-.3h10.9c.5,0,1,.3,1.1.8l10.4,32.3c0,.2.2.2.3.2.1,0,.2-.2.2-.3v-32c0-.3,0-.5.2-.7"/>
    </g>
    <g id="Gruppe_119" data-name="Gruppe 119">
      <path id="Pfad_258" data-name="Pfad 258" class="cls-1" d="M90.9,218.3c-.2-.2-.3-.4-.3-.7v-56.4c0-.3.1-.5.3-.7.2-.2.4-.3.7-.3h9.8c.3,0,.5.1.7.3.2.2.3.4.3.7v56.4c0,.6-.4,1-1,1,0,0,0,0,0,0h-9.8c-.3,0-.5-.1-.7-.3"/>
    </g>
    <g id="Gruppe_120" data-name="Gruppe 120">
      <path id="Pfad_259" data-name="Pfad 259" class="cls-1" d="M120,217.7l-11.9-56.4v-.3c0-.5.2-.7.8-.8h10.8c.5,0,1,.3,1.1.8,0,0,0,0,0,.1l5.8,36.7c0,.2.1.3.3.3s.2-.1.3-.3l5.6-36.7c0-.5.4-.9,1-.9,0,0,0,0,.1,0h10.4c.7,0,1,.4.8,1.1l-12,56.4c0,.6-.5,1-1.1.9,0,0,0,0,0,0h-10.8c-.5,0-1-.4-1.1-.9,0,0,0,0,0,0"/>
    </g>
    <g id="Gruppe_121" data-name="Gruppe 121">
      <path id="Pfad_260" data-name="Pfad 260" class="cls-1" d="M180.8,170c-.2.2-.4.3-.7.3h-17.4c-.2,0-.4.1-.4.3,0,0,0,0,0,.1v13.2c0,.2.1.4.3.4,0,0,0,0,.1,0h10c.5,0,1,.4,1,1,0,0,0,0,0,0v8.1c0,.6-.4,1-1,1,0,0,0,0,0,0h-10c-.2,0-.4.1-.4.3,0,0,0,0,0,.1v13.3c0,.2.1.4.3.4,0,0,0,0,.1,0h17.4c.5,0,1,.4,1,1,0,0,0,0,0,0v8.1c0,.6-.4,1-1,1,0,0,0,0,0,0h-28.6c-.3,0-.5-.1-.7-.3-.2-.2-.3-.4-.3-.7v-56.4c0-.3.1-.5.3-.7.2-.2.4-.3.7-.3h28.6c.3,0,.5.1.7.3.2.2.3.4.3.7v8.1c0,.3-.1.5-.3.7"/>
    </g>
    <g id="Gruppe_122" data-name="Gruppe 122">
      <path id="Pfad_261" data-name="Pfad 261" class="cls-1" d="M208.9,217.8l-6.4-23c-.1-.2-.2-.3-.4-.3h-2.8c-.2,0-.4.1-.4.3,0,0,0,0,0,.1v22.8c0,.6-.4,1-1,1,0,0,0,0,0,0h-9.8c-.3,0-.5-.1-.7-.3-.2-.2-.3-.4-.3-.7v-56.4c0-.3.1-.5.3-.7.2-.2.4-.3.7-.3h16.9c2.9,0,5.7.7,8.2,2.2,2.4,1.5,4.3,3.7,5.5,6.2,1.3,2.9,2,6,2,9.2,0,3-.6,6-1.9,8.7-1.2,2.4-3,4.4-5.2,5.8-.1,0-.2.1-.3.2,0,0,0,.2,0,.3l7.7,24.6v.3c0,.6-.2.8-.8.8h-10c-.5,0-1-.3-1.2-.8M198.8,170.7v14.3c0,.2.1.4.3.4,0,0,0,0,.1,0h3.8c1.7,0,3.2-.7,4.2-2,1.1-1.4,1.6-3.2,1.6-5.5,0-2.3-.5-4.2-1.6-5.5-1-1.3-2.6-2.1-4.2-2h-3.8c-.2,0-.4.1-.4.3,0,0,0,0,0,.1"/>
    </g>
    <g id="Gruppe_123" data-name="Gruppe 123">
      <path id="Pfad_262" data-name="Pfad 262" class="cls-1" d="M233.1,217.4c-2.4-1.2-4.3-3.1-5.7-5.4-1.4-2.4-2.1-5.2-2-8v-2.4c0-.3.1-.5.3-.7.2-.2.4-.3.7-.3h9.6c.5,0,1,.4,1,1,0,0,0,0,0,0v1.8c0,1.5.4,3,1.3,4.2.8,1,2,1.6,3.3,1.6,1.3,0,2.5-.5,3.3-1.5.9-1.1,1.4-2.5,1.3-3.9,0-1.6-.6-3.1-1.7-4.3-1.1-1.2-3.3-3-6.5-5.3-2.3-1.7-4.6-3.4-6.8-5.3-1.8-1.6-3.3-3.6-4.4-5.8-1.3-2.4-1.9-5.2-1.8-7.9,0-4.7,1.5-8.5,4.4-11.3,2.9-2.8,6.8-4.3,11.7-4.3,4.9,0,8.8,1.5,11.8,4.4,3,2.9,4.5,6.8,4.5,11.6v2c0,.3-.1.5-.3.7-.2.2-.4.3-.7.3h-9.6c-.3,0-.5,0-.7-.3-.2-.2-.3-.4-.3-.7v-2.3c0-1.5-.4-3-1.3-4.1-.8-1-2.1-1.6-3.4-1.5-1.2,0-2.4.5-3.2,1.5-.8,1-1.3,2.3-1.3,4,0,1.6.5,3.2,1.6,4.4,1.1,1.3,3.1,3.1,6.3,5.3,3.4,2.6,6,4.6,7.8,6.2,1.7,1.5,3.1,3.3,4.1,5.3,1,2.1,1.5,4.5,1.5,6.9,0,4.9-1.5,8.8-4.5,11.7-3,2.9-7,4.3-11.8,4.3-3,0-5.9-.6-8.5-1.9"/>
    </g>
    <g id="Gruppe_124" data-name="Gruppe 124">
      <path id="Pfad_263" data-name="Pfad 263" class="cls-1" d="M263.9,218.3c-.2-.2-.3-.4-.3-.7v-56.4c0-.3.1-.5.3-.7.2-.2.4-.3.7-.3h9.8c.3,0,.5.1.7.3.2.2.3.4.3.7v56.4c0,.6-.4,1-1,1,0,0,0,0,0,0h-9.8c-.3,0-.5-.1-.7-.3"/>
    </g>
    <g id="Gruppe_125" data-name="Gruppe 125">
      <path id="Pfad_264" data-name="Pfad 264" class="cls-1" d="M315.9,160.5c.2.2.3.4.3.7v8.1c0,.5-.4,1-1,1,0,0,0,0,0,0h-10.4c-.2,0-.4.1-.4.3,0,0,0,0,0,.1v46.9c0,.6-.4,1-1,1,0,0,0,0,0,0h-9.8c-.3,0-.5-.1-.7-.3-.2-.2-.3-.4-.3-.7v-46.9c0-.2-.1-.4-.3-.4,0,0,0,0-.1,0h-10c-.3,0-.5,0-.7-.3-.2-.2-.3-.4-.3-.7v-8.1c0-.3.1-.5.3-.7.2-.2.4-.3.7-.3h33c.3,0,.5,0,.7.3"/>
    </g>
    <g id="Gruppe_126" data-name="Gruppe 126">
      <path id="Pfad_265" data-name="Pfad 265" class="cls-1" d="M332.3,218.3c-.2-.2-.3-.4-.3-.7v-22.2c0,0-11.8-34-11.8-34,0-.1,0-.3,0-.4,0-.5.3-.7.9-.7h10.3c.5,0,1,.3,1.2.8l5.2,19.9c0,.2.1.3.3.3s.2,0,.3-.3l5.2-19.9c.1-.5.6-.9,1.2-.8h10.3c.3,0,.6,0,.8.3s.2.6,0,.9l-11.8,34v.5c0,0,0,21.7,0,21.7,0,.5-.4,1-1,1,0,0,0,0,0,0h-9.8c-.3,0-.5,0-.7-.3"/>
    </g>
  </g>
  <g id="Gruppe_151" data-name="Gruppe 151">
    <g id="Gruppe_103" data-name="Gruppe 103">
      <path id="Pfad_242" data-name="Pfad 242" class="cls-1" d="M31.2,65.6l-1.3-8c0-.3-.2-.4-.5-.4h-10.6c-.3,0-.5.1-.5.4l-1.3,8c0,.5-.4.9-1,.9,0,0,0,0-.1,0H6.1c-.7,0-1-.4-.8-1.1L17.5,9.1c0-.5.5-1,1.1-.9,0,0,0,0,0,0h11.3c.6,0,1,.4,1.1.9,0,0,0,0,0,0l12.2,56.4v.3c0,.5-.2.8-.8.8h-10c-.5,0-1-.3-1.1-.8,0,0,0,0,0-.1M20.3,48.1h7.5c.3,0,.4-.1.3-.4l-3.9-22.8c0-.2-.1-.3-.2-.3s-.2,0-.3.3l-3.8,22.8c0,.3.1.4.3.4"/>
    </g>
    <g id="Gruppe_104" data-name="Gruppe 104">
      <path id="Pfad_243" data-name="Pfad 243" class="cls-1" d="M75.9,8.2h9.7c.3,0,.5.1.7.3.2.2.3.4.3.7v56.4c0,.6-.4,1-1,1,0,0,0,0,0,0h-9.8c-.6,0-1-.4-1-1,0,0,0,0,0,0V28.1c0-.2,0-.3-.2-.3s-.2,0-.3.3l-6.5,11.5c-.3.4-.5.7-.7.7s-.4-.2-.7-.7l-6.5-11.5c-.1-.2-.2-.3-.3-.3s-.2.1-.2.3v37.5c0,.3-.1.5-.3.7-.2.2-.4.3-.7.3h-9.8c-.3,0-.5-.1-.7-.3-.2-.2-.3-.4-.3-.7V9.2c0-.3.1-.5.3-.7.2-.2.4-.3.7-.3h9.6c.5,0,1,.2,1.3.7l7.4,13.3c.2.2.3.2.5,0l7.2-13.3c.2-.5.7-.7,1.3-.7"/>
    </g>
    <g id="Gruppe_105" data-name="Gruppe 105">
      <path id="Pfad_244" data-name="Pfad 244" class="cls-1" d="M124,18c-.2.2-.4.3-.7.3h-17.4c-.2,0-.4.1-.4.3,0,0,0,0,0,.1v13.2c0,.2.1.4.3.4,0,0,0,0,.1,0h10c.5,0,1,.4,1,1,0,0,0,0,0,0v8.1c0,.6-.4,1-1,1,0,0,0,0,0,0h-10c-.2,0-.4.1-.4.3,0,0,0,0,0,.1v13.3c0,.2.1.4.3.4,0,0,0,0,.1,0h17.4c.5,0,1,.4,1,1,0,0,0,0,0,0v8.1c0,.6-.4,1-1,1,0,0,0,0,0,0h-28.6c-.3,0-.5-.1-.7-.3-.2-.2-.3-.4-.3-.7V9.2c0-.3.1-.5.3-.7.2-.2.4-.3.7-.3h28.6c.3,0,.5.1.7.3.2.2.3.4.3.7v8.1c0,.3-.1.5-.3.7"/>
    </g>
    <g id="Gruppe_106" data-name="Gruppe 106">
      <path id="Pfad_245" data-name="Pfad 245" class="cls-1" d="M152.1,65.7l-6.4-23c-.1-.2-.2-.3-.4-.3h-2.8c-.2,0-.4.1-.4.3,0,0,0,0,0,.1v22.8c0,.6-.4,1-1,1,0,0,0,0,0,0h-9.8c-.3,0-.5-.1-.7-.3-.2-.2-.3-.4-.3-.7V9.2c0-.3.1-.5.3-.7.2-.2.4-.3.7-.3h16.8c2.9,0,5.7.7,8.2,2.2,2.4,1.5,4.3,3.7,5.5,6.2,1.3,2.9,2,6,2,9.2,0,3-.6,6-1.9,8.7-1.2,2.4-3,4.4-5.2,5.8-.1,0-.2.1-.3.2,0,0,0,.2,0,.3l7.7,24.6v.3c0,.6-.2.8-.8.8h-10c-.5,0-1-.3-1.2-.8M142,18.7v14.3c0,.2.1.4.3.4,0,0,0,0,.1,0h3.8c1.7,0,3.2-.7,4.2-2,1.1-1.4,1.6-3.2,1.6-5.5,0-2.3-.5-4.2-1.6-5.5-1-1.3-2.6-2.1-4.2-2h-3.8c-.2,0-.4.1-.4.3,0,0,0,0,0,.1"/>
    </g>
    <g id="Gruppe_107" data-name="Gruppe 107">
      <path id="Pfad_246" data-name="Pfad 246" class="cls-1" d="M169.8,66.2c-.2-.2-.3-.4-.3-.7V9.2c0-.3.1-.5.3-.7.2-.2.4-.3.7-.3h9.8c.3,0,.5.1.7.3.2.2.3.4.3.7v56.4c0,.6-.4,1-1,1,0,0,0,0,0,0h-9.8c-.3,0-.5-.1-.7-.3"/>
    </g>
    <g id="Gruppe_108" data-name="Gruppe 108">
      <path id="Pfad_247" data-name="Pfad 247" class="cls-1" d="M192.4,62.7c-3-3-4.5-7-4.5-12v-27c0-4.9,1.5-8.9,4.5-11.8,3-2.9,7-4.4,12.1-4.4,5.1,0,9.1,1.5,12.1,4.4,3,2.9,4.5,6.9,4.5,11.8v.9c0,.3-.1.5-.3.7-.2.2-.4.3-.7.3l-9.8.4c-.7,0-1-.3-1-.9v-2.2c0-1.4-.4-2.8-1.3-3.9-.9-1-2.2-1.6-3.6-1.5-1.3,0-2.6.5-3.5,1.5-.9,1.1-1.4,2.5-1.3,3.9v28.8c0,1.4.4,2.8,1.3,3.9.9,1,2.2,1.5,3.5,1.5,1.4,0,2.7-.5,3.6-1.5.9-1.1,1.4-2.5,1.3-3.9v-2.3c0-.5.4-1,1-1,0,0,0,0,0,0l9.8.4c.6,0,1,.4,1,1,0,0,0,0,0,0v.8c0,5-1.5,9-4.6,12-3.1,3-7.1,4.5-12.1,4.5-5,0-9-1.5-12.1-4.5"/>
    </g>
    <g id="Gruppe_109" data-name="Gruppe 109">
      <path id="Pfad_248" data-name="Pfad 248" class="cls-1" d="M250,65.6l-1.3-8c0-.3-.2-.4-.5-.4h-10.6c-.3,0-.5.1-.5.4l-1.3,8c0,.5-.4.9-1,.9,0,0,0,0-.1,0h-9.8c-.7,0-1-.4-.8-1.1l12.3-56.4c0-.5.5-1,1.1-.9,0,0,0,0,0,0h11.3c.6,0,1,.4,1.1.9,0,0,0,0,0,0l12.2,56.4v.3c0,.5-.2.8-.8.8h-10c-.5,0-1-.3-1.1-.8,0,0,0,0,0-.1M239.1,48.1h7.5c.3,0,.4-.1.3-.4l-3.9-22.8c0-.2-.1-.3-.2-.3s-.2,0-.3.3l-3.8,22.8c0,.3.1.4.3.4"/>
    </g>
    <g id="Gruppe_110" data-name="Gruppe 110">
      <path id="Pfad_249" data-name="Pfad 249" class="cls-1" d="M290.9,8.4c.2-.2.4-.3.7-.3h9.7c.3,0,.5.1.7.3.2.2.3.4.3.7v56.4c0,.6-.4,1-1,1h-11c-.5,0-1-.3-1.1-.8l-10.3-32.3c0-.2-.2-.2-.3-.2-.1,0-.2.2-.2.3v32c0,.3,0,.5-.2.7-.2.2-.4.3-.7.3h-9.7c-.3,0-.5-.1-.7-.3-.2-.2-.3-.4-.3-.7V9.2c0-.3.1-.5.3-.7.2-.2.4-.3.7-.3h10.9c.5,0,1,.3,1.1.8l10.4,32.3c0,.2.2.2.3.2.1,0,.2-.2.2-.3V9.2c0-.3,0-.5.2-.7"/>
    </g>
  </g>
  <path class="cls-1" d="M315.1,66.5h113.7,0s96.3,0,96.3,0c.5,0,.9-.3,1-.7l18.9-56.3c.2-.7-.3-1.4-1-1.4h-228.9c-.6,0-1.1.5-1.1,1.1v56.3c0,.6.5,1.1,1.1,1.1Z"/>
  <path class="cls-1" d="M225.2,142.6h274.5c.5,0,.9-.3,1-.7l4.1-12.3c.1-.4,0-.9-.4-1.2l-62.5-44c-.2-.1-.4-.2-.6-.2h-216.1c-.6,0-1.1.5-1.1,1.1v56.3c0,.6.5,1.1,1.1,1.1Z"/>
  <path class="cls-1" d="M493.1,160.2h-124.6c-.6,0-1.1.5-1.1,1.1v56.3c0,.6.5,1.1,1.1,1.1h105.7c.5,0,.9-.3,1-.7l18.9-56.3c.2-.7-.3-1.4-1-1.4Z"/>
  <path class="cls-1" d="M570.5,160.3l-80,56.4c-.8.6-.4,1.9.6,1.9h80c.6,0,1.1-.5,1.1-1.1v-56.4c0-.9-1-1.3-1.7-.9Z"/>
</svg>