<svg version="1.1" id="logo-apus-triple-black" xmlns="http://www.w3.org/2000/svg"
    viewBox="0 0 397.8 75.2">
    <g id="AMU">
        <path
            d="M345.8,50.7l4.6,17h-8.4l-0.5-3.1h-3l-0.5,3.1h-8.2l4.1-17H345.8L345.8,50.7z M341.4,61.7c-0.3-2-0.8-4.4-1.2-7.2
		c-0.6,2.4-1.1,4.8-1.5,7.2H341.4L341.4,61.7z" />
        <path
            d="M377,50.7v17h-7.1V56.3l-2.8,11.5h-4.9l-2.9-11.3v11.3h-7v-17h10.5c0.3,1,0.7,2.3,1,3.6l1.2,4.4l1.8-8L377,50.7L377,50.7z"
        />
        <path
            d="M397.5,50.7v11.4c0.1,0.9,0,1.9-0.2,2.8c-0.3,0.6-0.8,1.2-1.3,1.6c-0.9,0.6-1.9,1-3,1.3c-1.5,0.3-2.9,0.5-4.4,0.5
		c-1.7,0-3.3-0.1-4.9-0.5c-1.2-0.2-2.3-0.7-3.3-1.3c-0.6-0.4-1.1-1.1-1.3-1.8c-0.2-1.2-0.2-2.5-0.2-3.8V50.9h8.2v12.6
		c-0.1,0.5,0,1,0.2,1.5c0.3,0.2,0.6,0.4,1,0.3c0.4,0,0.7-0.1,1-0.3c0.2-0.5,0.2-1.1,0.2-1.6V50.7H397.5L397.5,50.7z" />
        <path
            d="M358.8,18.3l5.9-17.7l5.7,17.7h19.3l-15.6,11.5l5.9,18.2l-15.4-11.1L349.1,48l6.1-18.2l-15.7-11.5H358.8z" />
    </g>
    <g id="APU">
        <path
            d="M6.9,27.1L6.6,25c0-0.1,0-0.1-0.1-0.1H3.6c-0.1,0-0.1,0-0.1,0.1l-0.4,2.1c0,0.1-0.1,0.2-0.3,0.2c0,0,0,0,0,0H0.2
		C0,27.4,0,27.3,0,27.1l3.3-15c0-0.1,0.1-0.3,0.3-0.2h3c0.1,0,0.3,0.1,0.3,0.2l3.2,15l0,0.1c0,0.1-0.1,0.2-0.2,0.2H7.2
		C7,27.4,6.9,27.3,6.9,27.1C6.9,27.1,6.9,27.1,6.9,27.1 M4,22.5h2c0.1,0,0.1,0,0.1-0.1l-1-6c0,0,0-0.1-0.1-0.1c0,0,0,0-0.1,0.1l-1,6
		C3.9,22.4,3.9,22.5,4,22.5" />
        <path
            d="M12.8,27.4h16h0l25.6,0c0.1,0,0.2-0.1,0.3-0.2l5-14.9c0.1-0.2-0.1-0.4-0.3-0.4H12.8c-0.2,0-0.3,0.1-0.3,0.3v14.9
		C12.5,27.2,12.7,27.4,12.8,27.4L12.8,27.4z" />
        <path
            d="M7.6,32.6c0.6,0.4,1.1,1,1.5,1.7c0.4,0.8,0.5,1.6,0.5,2.4c0,1.4-0.4,2.5-1.1,3.3c-0.7,0.8-1.7,1.2-2.9,1.2H3.9
		c-0.1,0-0.1,0-0.1,0.1c0,0,0,0,0,0v5.9c0,0.1,0,0.1-0.1,0.2c0,0-0.1,0.1-0.2,0.1H0.9c-0.1,0-0.1,0-0.2-0.1c0,0-0.1-0.1-0.1-0.2v-15
		c0-0.1,0-0.1,0.1-0.2c0,0,0.1-0.1,0.2-0.1h4.5C6.2,32,6.9,32.2,7.6,32.6 M6,38.3c0.3-0.4,0.4-0.9,0.4-1.5c0-0.6-0.1-1.2-0.4-1.5
		c-0.3-0.4-0.7-0.6-1.1-0.6h-1c-0.1,0-0.1,0-0.1,0.1c0,0,0,0,0,0v3.9c0,0.1,0,0.1,0.1,0.1c0,0,0,0,0,0h1C5.3,38.9,5.7,38.7,6,38.3"
        />
        <path
            d="M12.8,47.6h34.8c0.1,0,0.2-0.1,0.3-0.2l1.1-3.3c0-0.1,0-0.2-0.1-0.3L32.3,32.1c0,0-0.1,0-0.2,0H12.8
		c-0.2,0-0.3,0.1-0.3,0.3v14.9C12.5,47.4,12.7,47.6,12.8,47.6L12.8,47.6z" />
        <path
            d="M1.8,66.7c-0.8-0.8-1.2-1.9-1.2-3.3V52.5c0-0.1,0-0.1,0.1-0.2c0,0,0.1-0.1,0.2-0.1h2.6c0.1,0,0.1,0,0.2,0.1
		c0,0,0.1,0.1,0.1,0.2v11.1c0,0.4,0.1,0.8,0.4,1.2c0.2,0.3,0.6,0.5,0.9,0.4c0.4,0,0.7-0.2,0.9-0.4c0.2-0.3,0.4-0.7,0.3-1.2V52.5
		c0-0.1,0-0.1,0.1-0.2c0,0,0.1-0.1,0.2-0.1h2.6c0.1,0,0.1,0,0.2,0.1c0,0,0.1,0.1,0.1,0.2v10.8c0,1.4-0.4,2.5-1.2,3.3
		c-0.8,0.8-1.9,1.3-3.2,1.3C3.7,67.9,2.6,67.5,1.8,66.7" />
        <path
            d="M45.9,52.2H12.8c-0.2,0-0.3,0.1-0.3,0.3v14.9c0,0.2,0.1,0.3,0.3,0.3h28.1c0.1,0,0.2-0.1,0.3-0.2l5-14.9
		C46.2,52.4,46.1,52.2,45.9,52.2L45.9,52.2z" />
        <path
            d="M66.5,52.3l-21.2,15c-0.2,0.2-0.1,0.5,0.2,0.5h21.2c0.2,0,0.3-0.1,0.3-0.3v-15C66.9,52.3,66.6,52.1,66.5,52.3L66.5,52.3z"
        />
    </g>
    <g id="APUS">
        <path
            d="M110.3,31.7v-0.8c1.8-0.3,2.1-0.4,1.8-1.7c-0.3-1.3-1-2.8-1.7-4.6h-6.5c-0.4,1.4-1,2.7-1.3,3.9c-0.7,1.8-0.4,2.2,1.8,2.4
		v0.8H98v-0.8c1.8-0.3,2.2-0.4,3.4-3.1l6.2-15.7l1-0.3c1.8,5.2,4,10.8,5.8,16.1c1,2.5,1.4,2.8,3.4,3.1v0.8h-7.4L110.3,31.7
		L110.3,31.7z M107.3,15.8c-1,2.5-2,5.2-2.9,7.7h5.5L107.3,15.8z" />
        <path
            d="M135.5,31.7v-0.8c1.8-0.1,2.1-0.3,2.1-2.4v-5c0-2.1-0.7-3.5-2.7-3.5c-1.3,0.1-2.5,0.6-3.4,1.5c0,0.4,0.1,0.7,0.1,1.3v5.9
		c0,1.8,0.3,2.1,2,2.2v0.8h-6.4v-0.8c1.8-0.1,2.1-0.3,2.1-2.2v-5.2c0-2.2-0.8-3.5-2.7-3.5c-1.2,0.1-2.4,0.7-3.2,1.5v7
		c0,2,0.3,2.1,1.7,2.2v0.8h-6.3v-0.8c2-0.1,2.2-0.4,2.2-2.2v-6.2c0-2-0.1-2.1-1.8-2.4v-0.7c1.5-0.3,2.9-0.7,4.2-1.3v2.4
		c0.7-0.6,1.5-1.1,2.2-1.5c0.8-0.5,1.6-0.8,2.5-0.8c1.5,0,2.9,1.1,3.4,2.5c0.8-0.7,1.6-1.2,2.5-1.7c0.6-0.5,1.4-0.8,2.2-0.8
		c2.4,0,3.8,1.7,3.8,4.6v5.7c0,2,0.3,2.1,2,2.2v0.8h-6.6L135.5,31.7L135.5,31.7z" />
        <path
            d="M154.3,29.2c-1.1,1.7-2.9,2.7-4.9,2.9c-3.6,0-5.9-2.9-5.9-6.5c-0.1-1.9,0.6-3.8,2-5.2c1.1-1.3,2.6-2.1,4.3-2.2
		c2.5,0.1,4.5,2.1,4.5,4.6c0,0.6-0.1,0.8-0.7,1c-0.6,0.1-4.2,0.4-7.8,0.6c0,4.1,2.4,5.7,4.5,5.7c1.3,0,2.5-0.5,3.4-1.5L154.3,29.2
		L154.3,29.2z M149.2,19.4c-1.4,0-2.7,1.3-3.1,3.6c1.7,0,3.4,0,5.1-0.1c0.6,0,0.7-0.1,0.7-0.6c0.1-1.5-1-2.8-2.5-2.9
		C149.3,19.4,149.3,19.4,149.2,19.4L149.2,19.4z" />
        <path
            d="M160.7,21.5c0.8-1.5,2.2-3.2,3.6-3.2c0.9,0,1.6,0.7,1.7,1.5c0,0.6-0.4,1.2-1,1.4c-0.3,0.1-0.6,0.1-0.8,0
		c-0.3-0.4-0.8-0.6-1.3-0.6c-0.8,0-1.7,0.8-2.4,2.5v5.5c0,2,0.1,2.1,2.5,2.4v0.8h-6.9V31c1.8-0.1,2.1-0.4,2.1-2.4v-6.2
		c0-2-0.1-2.1-1.8-2.4v-0.7c1.4-0.2,2.9-0.7,4.2-1.3V21.5L160.7,21.5z" />
        <path
            d="M167.4,31.7v-0.8c1.8-0.1,2.1-0.4,2.1-2.4v-6.1c0-1.8-0.1-2-1.8-2.2v-0.7c1.4-0.2,2.9-0.6,4.2-1.1v10.4
		c0,2.1,0.1,2.2,2.1,2.4v0.8h-6.6V31.7L167.4,31.7z M168.9,14.2c0-0.9,0.7-1.5,1.5-1.5c0.9,0,1.5,0.7,1.5,1.5s-0.7,1.5-1.5,1.5
		C169.7,15.7,169.1,15,168.9,14.2z" />
        <path
            d="M186.8,29.1c-1.3,1.7-3.4,3.1-5.1,3.1c-3.3,0-6-2.7-6-6c0-0.1,0-0.2,0-0.3c0-2.3,1.1-4.5,2.9-5.9c1.3-1,2.8-1.6,4.5-1.7
		c1-0.1,1.9,0.2,2.7,0.8c0.4,0.3,0.4,0.6,0.4,1c-0.1,0.6-0.4,1-1,1.3c-0.1,0-0.3-0.1-0.6-0.3c-0.8-0.8-1.8-1.2-2.9-1.3
		c-2,0-3.8,1.7-3.8,4.8c0,4.2,2.8,5.6,4.5,5.6c1.4,0,2.7-0.7,3.6-1.7L186.8,29.1L186.8,29.1z" />
        <path
            d="M197.7,32.2c-0.5,0-1-0.2-1.4-0.6c-0.4-0.4-0.6-0.9-0.7-1.4c-1.3,0.8-2.7,2-3.5,2c-2,0-3.6-1.7-3.6-3.6
		c0-1.4,1-2.6,2.4-2.9c1.6-0.4,3.2-1.1,4.6-2V23c0-2.1-1-3.4-2.5-3.4c-0.5,0-1,0.2-1.4,0.6c-0.5,0.5-0.8,1.2-0.8,2
		c-0.1,0.6-0.4,0.7-0.8,0.7c-0.7,0-1.2-0.6-1.3-1.3c0-0.4,0.4-0.8,1-1.3c1.4-1,2.9-1.7,4.5-2.1c0.9,0,1.8,0.3,2.5,0.8
		c1,0.9,1.5,2.3,1.4,3.6v5.6c0,1.4,0.6,1.8,1,1.8c0.4,0,0.8-0.1,1.1-0.3l0.3,0.8L197.7,32.2L197.7,32.2z M195.5,24.6
		c-0.7,0.3-2.1,1-2.7,1.3c-1.1,0.6-1.8,1.1-1.8,2.2c0,1.2,0.9,2.2,2.1,2.2c0.9-0.1,1.7-0.5,2.4-1.1L195.5,24.6L195.5,24.6z" />
        <path
            d="M209.6,31.7v-0.8c1.8-0.1,2-0.4,2-2.5v-5.1c0-2.1-0.7-3.4-2.7-3.4c-1.2,0.1-2.4,0.6-3.2,1.5v7c0,2.1,0.1,2.1,2,2.4v0.8
		h-6.4v-0.8c2.1-0.1,2.2-0.4,2.2-2.4v-6.1c0-2-0.1-2-1.8-2.2v-0.7c1.5-0.2,2.9-0.7,4.2-1.3v2.4c0.6-0.4,1.3-0.8,2-1.4
		c0.7-0.5,1.6-0.8,2.5-0.8c2.4,0,3.9,1.7,3.9,4.6v5.7c0,2.1,0.1,2.1,1.8,2.4v0.8h-6.5V31.7L209.6,31.7z" />
        <path
            d="M232.2,12.3c1.8-0.1,3.5,0.3,5,1.3c1.3,1,2,2.6,2,4.2c0,3.9-2.9,5.7-5.9,6.2h-1.4l-2.2-0.6v4.8c0,2.5,0.3,2.7,2.9,2.9v0.8
		h-8.1v-0.8c2.4-0.1,2.7-0.4,2.7-2.9V16c0-2.7-0.3-2.8-2.5-2.9v-0.8L232.2,12.3L232.2,12.3z M229.7,22.4c0.7,0.3,1.5,0.4,2.2,0.4
		c2,0,4.3-1,4.3-4.9c0.2-2.3-1.5-4.4-3.8-4.6c-0.2,0-0.5,0-0.7,0c-0.6-0.1-1.2,0.1-1.7,0.4c-0.3,0.1-0.3,0.6-0.3,1.4v7.3L229.7,22.4
		L229.7,22.4z" />
        <path
            d="M255.8,31l-2.2,0.4c-0.8,0.1-1.5,0.4-2.1,0.6l-0.1-0.1v-2.1c-0.7,0.6-1.4,1-2.2,1.5c-0.7,0.5-1.4,0.7-2.2,0.7
		c-2,0-3.6-1.3-3.6-4.5v-5.9c0-1.5-0.3-1.7-1-2l-0.8-0.1v-0.7c0.7,0,1.4-0.1,2.1-0.3c0.7-0.1,1.4-0.2,2.1-0.3
		c-0.1,1.4-0.2,2.9-0.1,4.3v4.1c0,2.7,1.3,3.4,2.7,3.4c1.2,0,2.4-0.5,3.2-1.4v-7c0-1.7-0.3-1.8-1.3-2l-1.1-0.1v-0.7
		c0.9,0,1.8-0.1,2.7-0.3c0.9-0.1,1.5-0.1,2-0.3v10.2c0,1.5,0.3,1.7,1.4,1.8h0.8L255.8,31L255.8,31L255.8,31z" />
        <path
            d="M263,18.6c0.4-0.2,0.8-0.3,1.3-0.3c3.4,0.1,6,3,5.9,6.3c0,4.2-3.4,7.5-7.5,7.6c0,0,0,0-0.1,0c-1.5,0-3-0.4-4.3-1.1V14.4
		c0-1.8,0-2.1-2-2.2v-0.7c1.5-0.2,2.9-0.5,4.3-1v9.3L263,18.6L263,18.6z M260.7,28.2c0,0.3,0,0.7,0.1,1c0.5,1,1.5,1.7,2.7,1.7
		c2.5,0,4.1-2.1,4.1-5.6c0-3.5-2.1-5.3-4.6-5.3c-0.8,0-1.6,0.2-2.4,0.6v7.7L260.7,28.2L260.7,28.2z" />
        <path
            d="M271.5,31.7v-0.8c1.8-0.1,2.1-0.4,2.1-2.4v-14c0-2.1-0.1-2.1-2.1-2.2v-0.7c1.5-0.2,3-0.5,4.5-1v18.2c0,2,0.3,2.1,2.1,2.4
		V32h-6.6V31.7L271.5,31.7z" />
        <path
            d="M279.6,31.7v-0.8c1.8-0.1,2.1-0.4,2.1-2.4v-6.1c0-1.8-0.1-2-1.8-2.2v-0.7c1.4-0.2,2.9-0.6,4.2-1.1v10.4
		c0,2.1,0.1,2.2,2.1,2.4v0.8h-6.6V31.7L279.6,31.7z M281.3,14.2c0-0.9,0.7-1.5,1.5-1.5c0.9,0,1.5,0.7,1.5,1.5c0,0.9-0.7,1.5-1.5,1.5
		c0,0,0,0,0,0C281.9,15.7,281.3,15,281.3,14.2" />
        <path
            d="M298.9,29.1c-1.3,1.7-3.4,3.1-5.1,3.1c-3.3,0-6-2.7-6-6c0-0.1,0-0.2,0-0.3c0-2.3,1.1-4.5,2.9-5.9c1.3-1,2.8-1.6,4.5-1.7
		c1-0.1,1.9,0.2,2.7,0.8c0.4,0.3,0.4,0.6,0.4,1c-0.1,0.6-0.4,1-1,1.3c-0.1,0-0.3-0.1-0.6-0.3c-0.8-0.8-1.8-1.2-2.9-1.3
		c-2,0-3.8,1.7-3.8,4.8c0,4.2,2.8,5.6,4.5,5.6c1.4,0,2.7-0.7,3.6-1.7L298.9,29.1L298.9,29.1z" />
        <path
            d="M116.8,50.2c-1.7,0.1-2.4,0.6-2.5,1.7c-0.2,1.5-0.2,3.1-0.1,4.6v2.4c0,3.4-0.6,5.7-2.1,7.4c-1.3,1.3-3.2,2-5.1,1.9
		c-1.6,0-3.2-0.4-4.5-1.4c-1.7-1.3-2.5-3.4-2.5-6.7v-7c0-2.5-0.3-2.7-2.5-2.8v-0.8h7.3v0.8c-2.2,0.1-2.5,0.3-2.5,2.8v6.5
		c0,4.5,1.8,7.1,5.3,7.1c4.1,0,5.3-3.4,5.3-8v-2.1c0-2.7-0.1-3.8-0.1-4.6c-0.1-1.1-0.7-1.4-2.8-1.5v-0.8h6.7v0.6L116.8,50.2
		L116.8,50.2z" />
        <path
            d="M125,67.8v-0.7c1.7-0.1,1.8-0.4,1.8-2.4v-4.8c0-2-0.7-3.2-2.5-3.2c-1.2,0.1-2.2,0.6-3.1,1.4v6.6c0,2,0.1,2,1.8,2.2v0.8
		h-6.2v-0.7c2-0.1,2.1-0.3,2.1-2.2v-5.9c0-1.8-0.1-1.8-1.7-2.2V56c1.3-0.2,2.7-0.6,3.9-1.1v2.2c0.6-0.5,1.2-0.9,1.8-1.3
		c0.7-0.5,1.5-0.8,2.4-0.8c2.2,0,3.6,1.5,3.6,4.3v5.5c0,2,0.1,2,1.8,2.2v0.7H125z" />
        <path
            d="M132.5,67.8v-0.7c1.8-0.1,2-0.3,2-2.2v-5.9c0-1.7-0.1-1.8-1.8-2.1v-0.7c1.4-0.2,2.8-0.6,4.1-1.1v9.7c0,2,0.1,2.1,2,2.2v0.8
		L132.5,67.8z M133.9,51.2c0-0.8,0.6-1.4,1.4-1.4c0.7,0,1.4,0.5,1.4,1.2c0,0.1,0,0.1,0,0.2c0,0.8-0.6,1.4-1.4,1.4
		C134.6,52.6,134,52,133.9,51.2" />
        <path
            d="M152.4,56.1c-1.4,0.1-1.7,0.4-2.5,2.1c-1,2.1-2.4,5.6-3.9,9.8h-0.7c-1.3-3.4-2.5-6.6-3.9-9.8c-0.7-1.7-0.8-1.8-2.4-2.1
		v-0.7h5.7v0.7c-1.5,0.1-1.5,0.4-1.1,1.7c0.7,2,1.8,4.9,2.7,7c1-2.4,1.8-4.9,2.5-6.7c0.4-1.4,0.3-1.7-1.4-1.8v-0.7h5V56.1
		L152.4,56.1z" />
        <path
            d="M162.9,65.4c-1.1,1.5-2.8,2.6-4.6,2.8c-3.5,0-5.5-2.8-5.5-6c0-1.8,0.6-3.6,1.8-4.9c1-1.2,2.5-2,4.1-2.1
		c2.3,0.1,4.2,2,4.2,4.3c0,0.6-0.1,0.8-0.7,0.8c-2.5,0.3-4.9,0.5-7.4,0.4c0,3.8,2.2,5.5,4.2,5.5c1.2,0,2.4-0.5,3.2-1.4L162.9,65.4
		L162.9,65.4z M158,56.1c-1.3,0-2.5,1.1-2.9,3.5c1.5,0,3.1,0,4.8-0.1c0.6,0,0.7-0.1,0.7-0.6c0.2-1.4-0.8-2.6-2.2-2.8
		C158.3,56.1,158.1,56.1,158,56.1L158,56.1z" />
        <path
            d="M169,58.1c0.8-1.4,2.1-2.9,3.4-2.9c0.9-0.1,1.6,0.6,1.7,1.4c0,0.6-0.4,1.1-0.8,1.4c-0.2,0.1-0.5,0.1-0.7,0
		c-0.3-0.4-0.7-0.6-1.1-0.6c-0.7,0-1.7,0.8-2.2,2.4v5.2c0,1.8,0.1,2,2.2,2.2v0.6h-6.5v-0.7c1.7-0.1,2-0.3,2-2.2v-5.9
		c0-1.8-0.1-2-1.7-2.2v-0.6c1.3-0.2,2.7-0.6,3.9-1.1L169,58.1z" />
        <path
            d="M182.3,58.8c-0.6-1.7-1.5-2.8-2.9-2.8c-1,0-1.8,0.8-1.8,1.8c0,0.1,0,0.1,0,0.2c0,1.3,1.1,2,2.4,2.5
		c2.1,0.8,3.5,1.8,3.5,3.8c0,2.5-2.4,3.9-4.6,3.9c-1.1,0-2.3-0.3-3.2-1c-0.2-1.1-0.4-2.2-0.4-3.4l0.7-0.1c0.6,1.8,1.8,3.5,3.5,3.5
		c1.1,0,1.9-0.9,2-2c0-1.3-0.8-2-2.2-2.5c-1.7-0.8-3.5-1.7-3.5-3.9c0-2,1.7-3.6,4.3-3.6c0.9,0,1.7,0.2,2.5,0.4c0.3,1,0.5,2,0.6,3.1
		L182.3,58.8L182.3,58.8z" />
        <path
            d="M185.2,67.8v-0.7c1.8-0.1,2-0.3,2-2.2v-5.9c0-1.7-0.1-1.8-1.8-2.1v-0.7c1.4-0.2,2.8-0.6,4.1-1.1v9.7c0,2,0.1,2.1,2,2.2v0.8
		L185.2,67.8z M186.8,51.2c0-0.8,0.6-1.4,1.4-1.4c0.7,0,1.4,0.5,1.4,1.2c0,0.1,0,0.1,0,0.2c0,0.8-0.6,1.4-1.4,1.4
		C187.4,52.6,186.8,52,186.8,51.2" />
        <path
            d="M198.1,67.8c-0.3,0.2-0.7,0.4-1.1,0.4c-1.8,0-2.8-1.1-2.8-3.4v-8.3h-2l-0.1-0.3l0.7-0.8h1.3v-2.1l1.8-1.8h0.4v3.9h3.2
		c0.2,0.4,0.2,0.8-0.1,1.1h-3.1v7.3c0,2.2,1,2.7,1.7,2.7c0.6,0,1.2-0.2,1.7-0.4l0.3,0.7L198.1,67.8L198.1,67.8z" />
        <path
            d="M213.8,56.1c-1.5,0.3-1.7,0.4-2.5,2.1c-0.8,1.7-1.5,3.8-3.5,8.5c-1.1,2.5-2.1,5.1-2.9,7.7c-0.1,0.4-0.4,0.7-0.8,0.7
		c-0.8,0-1.5-0.6-1.5-1.4c0-0.4,0.3-0.7,0.7-1c0.9-0.6,1.6-1.5,2.1-2.5c0.4-0.6,0.6-1.3,0.9-2c0.1-0.4,0.1-0.9,0-1.3
		c-1.1-3.2-2.4-6.6-3.2-8.7c-0.6-1.5-0.8-2-2.4-2.1v-0.7h5.7v0.7c-1.3,0.3-1.4,0.6-1.1,1.5l2.6,7.1c0.8-2,2-5.2,2.7-7
		c0.3-1.1,0.1-1.4-1.4-1.5v-0.7h5v0.4L213.8,56.1z" />
        <path
            d="M230.4,53.7c-0.6-1.8-1.3-3.8-3.6-3.8c-1.6-0.1-3,1.2-3.1,2.8c0,0.1,0,0.2,0,0.3c0,2.1,1.4,3.1,3.6,4.2
		c2.2,1.1,4.9,2.5,4.9,5.6c0,3.1-2.5,5.3-6.3,5.3c-0.9,0-1.9-0.2-2.8-0.4c-0.7-0.3-1.1-0.4-1.4-0.6c-0.4-1.4-0.6-2.9-0.7-4.3
		l0.8-0.1c0.4,1.7,1.7,4.6,4.6,4.6c1.7,0.2,3.2-1.1,3.4-2.8c0-0.2,0-0.4,0-0.6c0-2.1-1.5-3.1-3.6-4.2c-1.8-1-4.6-2.4-4.6-5.6
		c0-2.7,2.2-5.1,5.7-5.1c1.2,0,2.4,0.2,3.5,0.7c0.1,1,0.3,2.1,0.4,3.9H230.4L230.4,53.7z" />
        <path
            d="M246.1,56.1c-1.5,0.3-1.7,0.4-2.5,2.1c-0.8,1.7-1.5,3.8-3.5,8.5c-1.8,4.5-2.5,6.2-2.9,7.7c-0.1,0.4-0.4,0.7-0.8,0.7
		c-0.8,0-1.5-0.6-1.5-1.4c0-0.4,0.3-0.7,0.7-1c0.9-0.6,1.6-1.5,2.1-2.5c0.4-0.6,0.6-1.3,0.8-2c0.1-0.4,0.1-0.9,0-1.3
		c-1.1-3.2-2.4-6.6-3.2-8.7c-0.6-1.5-0.8-2-2.4-2.1v-0.7h5.8v0.7c-1.3,0.3-1.4,0.6-1.1,1.5l2.5,7.1c0.8-2,2-5.2,2.7-7
		c0.3-1.1,0.1-1.4-1.4-1.5v-0.7h5.1v0.4L246.1,56.1z" />
        <path
            d="M253.8,58.8c-0.6-1.7-1.5-2.8-2.9-2.8c-1,0-1.8,0.8-1.8,1.8c0,0.1,0,0.1,0,0.2c0,1.3,1.1,2,2.4,2.5
		c2.1,0.8,3.5,1.8,3.5,3.8c0,2.5-2.4,3.9-4.6,3.9c-1.1,0-2.3-0.3-3.2-1c-0.3-1.1-0.4-2.2-0.4-3.4l0.7-0.1c0.6,1.8,1.8,3.5,3.5,3.5
		c1.1,0,1.9-0.9,2-2c0-1.3-0.8-2-2.2-2.5c-1.7-0.8-3.5-1.7-3.5-3.9c0-2,1.7-3.6,4.3-3.6c0.9,0,1.7,0.2,2.5,0.4c0.3,1,0.5,2,0.6,3.1
		L253.8,58.8L253.8,58.8z" />
        <path
            d="M262.2,67.8c-0.3,0.2-0.7,0.4-1.1,0.4c-1.8,0-2.8-1.1-2.8-3.4v-8.3h-2l-0.1-0.3l0.7-0.8h1.2v-2.1l1.8-1.8h0.4v3.9h3.2
		c0.3,0.3,0.1,0.8-0.1,1.1h-2.9v7.3c0,2.2,1,2.7,1.7,2.7c0.6,0,1.2-0.2,1.7-0.4l0.3,0.7L262.2,67.8L262.2,67.8z" />
        <path
            d="M275.4,65.4c-1.1,1.5-2.8,2.6-4.6,2.8c-3.5,0-5.5-2.8-5.5-6c0-1.8,0.6-3.6,1.8-4.9c1-1.2,2.5-2,4.1-2.1
		c2.3,0.1,4.2,2,4.2,4.3c0,0.6-0.1,0.8-0.7,0.8c-2.5,0.3-4.9,0.5-7.4,0.4c0,3.8,2.2,5.5,4.2,5.5c1.2,0,2.4-0.5,3.2-1.4L275.4,65.4
		L275.4,65.4z M270.6,56.1c-1.3,0-2.5,1.1-2.9,3.5c1.5,0,3.1,0,4.8-0.1c0.6,0,0.7-0.1,0.7-0.6C273.2,57.5,272.1,56.2,270.6,56.1
		L270.6,56.1z" />
        <path
            d="M292.6,67.8v-0.7c1.7-0.1,2-0.3,2-2.2V60c0-2-0.7-3.2-2.5-3.2c-1.2,0.1-2.3,0.6-3.2,1.4c0,0.3,0.1,0.7,0.1,1.1v5.6
		c0,1.8,0.3,2,1.8,2.1v0.7h-6v-0.7c1.7-0.1,2-0.3,2-2.1V60c0-2.1-0.7-3.2-2.5-3.2c-1.1,0.1-2.2,0.6-3.1,1.4v6.6c0,1.8,0.3,2,1.5,2.1
		v0.8h-5.9v-0.7c1.8-0.1,2.1-0.3,2.1-2.1v-5.9c0-1.8-0.1-2-1.7-2.2v-0.7c1.3-0.2,2.7-0.6,3.9-1.1v2.2c0.6-0.4,1.3-0.8,2.1-1.4
		c0.7-0.5,1.5-0.7,2.4-0.7c1.4,0,2.7,1,3.1,2.4c0.8-0.6,1.7-1.1,2.4-1.5c0.6-0.5,1.3-0.7,2.1-0.7c2.2,0,3.6,1.5,3.6,4.3v5.5
		c0,1.8,0.3,2,1.8,2.1v0.6L292.6,67.8L292.6,67.8z" />
        <path d="M298.9,42H97.4v0.3h201.6V42z" />
    </g>
</svg>