<?xml version="1.0" encoding="UTF-8"?>
<svg id="Layer_1" data-name="Layer 1" xmlns="http://www.w3.org/2000/svg" version="1.1" viewBox="0 0 494 94">
  <defs>
    <style>
      .cls-1 {
        fill: #fff;
        stroke-width: 0px;
      }

      .cls-2 {
        fill: none;
        stroke: #fff;
        stroke-miterlimit: 10;
        stroke-width: .4px;
      }
    </style>
  </defs>
  <g>
    <path class="cls-1" d="M417.9,65.2l5.8,21.4h-10.5l-.6-3.9h-3.7l-.6,3.9h-10.3l5.2-21.4h14.9ZM412.4,79c-.4-2.5-1-5.6-1.5-9.1-.8,3-1.4,6-1.8,9.1h3.3Z"/>
    <path class="cls-1" d="M457.2,65.2v21.4h-8.9v-14.4l-3.5,14.5h-6.1l-3.7-14.3v14.3h-8.9v-21.4h13.2c.4,1.2.8,2.9,1.2,4.6l1.5,5.6,2.3-10.1h13Z"/>
    <path class="cls-1" d="M483,65.2v14.4c0,1.2,0,2.4-.2,3.5-.4.8-1,1.5-1.6,2.1-1.2.7-2.4,1.3-3.7,1.6-1.8.4-3.7.6-5.6.6-2.1,0-4.2-.2-6.2-.6-1.5-.3-2.9-.9-4.1-1.6-.8-.5-1.4-1.3-1.6-2.3-.2-1.6-.3-3.2-.2-4.8v-12.8h10.3v15.9c0,.6,0,1.3.2,1.9.3.3.8.4,1.2.4.5,0,.9-.1,1.2-.4.2-.7.3-1.4.2-2.1v-15.9h10.1Z"/>
    <polygon class="cls-1" points="434.3 24.3 441.7 2 448.9 24.3 473.3 24.3 453.7 38.7 461.1 61.6 441.7 47.6 422.1 61.6 429.7 38.7 409.9 24.3 434.3 24.3"/>
  </g>
  <g>
    <g id="Gruppe_103" data-name="Gruppe 103">
      <path id="Pfad_242" data-name="Pfad 242" class="cls-1" d="M15.1,39.7l-.4-2.5c0,0,0-.1-.2-.1h-3.2c-.1,0-.2,0-.2.1l-.4,2.5c0,.2-.1.3-.3.3,0,0,0,0,0,0h-3c-.2,0-.3-.1-.3-.3l3.8-17.3c0-.2.2-.3.3-.3,0,0,0,0,0,0h3.5c.2,0,.3.1.3.3,0,0,0,0,0,0l3.7,17.3h0c0,.3,0,.3-.3.3h-3.1c-.2,0-.3,0-.3-.2,0,0,0,0,0,0M11.8,34.3h2.3c0,0,.1,0,.1-.1l-1.2-7c0,0,0,0,0,0s0,0,0,0l-1.2,7c0,0,0,.1.1.1"/>
    </g>
    <path class="cls-1" d="M21.9,40h18.5,0s29.5,0,29.5,0c.1,0,.3,0,.3-.2l5.8-17.3c0-.2,0-.4-.3-.4H21.9c-.2,0-.3.1-.3.3v17.3c0,.2.1.3.3.3Z"/>
    <g>
      <g id="Gruppe_111" data-name="Gruppe 111">
        <path id="Pfad_250" data-name="Pfad 250" class="cls-1" d="M15.9,46.1c.7.5,1.3,1.1,1.7,1.9.4.9.6,1.9.6,2.8,0,1.6-.4,2.9-1.3,3.8-.9,1-2,1.4-3.3,1.4h-1.9c0,0-.1,0-.1,0,0,0,0,0,0,0v6.8c0,0,0,.2,0,.2,0,0-.1,0-.2,0h-3c0,0-.2,0-.2,0,0,0,0-.1,0-.2v-17.3c0,0,0-.2,0-.2,0,0,.1,0,.2,0h5.2c.9,0,1.8.2,2.5.7M14.1,52.6c.3-.4.5-1,.5-1.7s-.2-1.3-.5-1.8c-.3-.4-.8-.7-1.3-.6h-1.1c0,0-.1,0-.1,0,0,0,0,0,0,0v4.5c0,0,0,.1,0,.1,0,0,0,0,0,0h1.1c.5,0,1-.2,1.3-.6"/>
      </g>
      <path class="cls-1" d="M21.9,63.3h40.2c.1,0,.3,0,.3-.2l1.3-3.8c0-.1,0-.3-.1-.4l-19.2-13.5c0,0-.1,0-.2,0h-22.3c-.2,0-.3.1-.3.3v17.3c0,.2.1.3.3.3Z"/>
    </g>
    <g>
      <g id="Gruppe_117" data-name="Gruppe 117">
        <path id="Pfad_256" data-name="Pfad 256" class="cls-1" d="M9.3,85.4c-.9-1-1.4-2.2-1.4-3.8v-12.5c0,0,0-.2,0-.2,0,0,.1,0,.2,0h3c0,0,.2,0,.2,0,0,0,0,.1,0,.2v12.9c0,.5.1.9.4,1.3.3.3.7.5,1.1.5.4,0,.8-.2,1.1-.5.3-.4.4-.9.4-1.3v-12.9c0,0,0-.2,0-.2,0,0,.1,0,.2,0h3c0,0,.2,0,.2,0,0,0,0,.1,0,.2v12.5c0,1.6-.5,2.9-1.4,3.8-.9,1-2.2,1.4-3.7,1.4-1.5,0-2.8-.5-3.7-1.4"/>
      </g>
      <path class="cls-1" d="M60.1,68.7H21.9c-.2,0-.3.1-.3.3v17.3c0,.2.1.3.3.3h32.4c.1,0,.3,0,.3-.2l5.8-17.3c0-.2,0-.4-.3-.4Z"/>
      <path class="cls-1" d="M83.9,68.7l-24.5,17.3c-.3.2-.1.6.2.6h24.5c.2,0,.3-.1.3-.3v-17.3c0-.3-.3-.4-.5-.3Z"/>
    </g>
  </g>
  <g>
    <path class="cls-1" d="M126.9,82.8c-.1,0-.2,0-.3,0,0,0-.1.1-.2.2l-.7,1.8c0,.2,0,.3,0,.3,0,.1,0,.2,0,.3s.2.2.3.2c.1,0,.2,0,.4.1s.3,0,.4,0c0,0,.1,0,.2,0,0,0,0,.1,0,.2s0,.1,0,.2c0,0,0,0-.2,0-.2,0-.5,0-.8,0s-.6,0-.9,0-.5,0-.8,0-.5,0-.8,0,0,0-.1,0c0,0,0-.1,0-.2,0,0,0-.1,0-.2,0,0,0,0,.1,0h.2c.2,0,.3,0,.4-.1.1,0,.2-.1.3-.2.1-.1.2-.2.3-.4s.2-.4.3-.6l3.4-8.6c0,0,.1-.1.2-.1s.3,0,.3.1c.3.6.5,1.3.8,2.1.3.7.6,1.5.9,2.3.3.8.6,1.5.9,2.3.3.8.6,1.5.9,2.1.1.3.2.5.4.7.1.2.2.3.3.4.1,0,.2.1.4.2s.3,0,.4,0c0,0,.1,0,.1,0,0,0,0,.1,0,.2s0,.1,0,.2c0,0,0,0-.1,0-.3,0-.6,0-.9,0s-.6,0-1,0-.8,0-1.2,0c-.4,0-.7,0-1.1,0s-.1,0-.2,0c0,0,0-.1,0-.2s0-.1,0-.2c0,0,0,0,.2,0,.3,0,.6-.1.8-.2.2,0,.2-.2.2-.5s0-.2,0-.2c0,0,0-.2,0-.4,0-.2-.1-.4-.2-.6,0-.2-.2-.6-.4-.9,0-.1-.1-.2-.2-.3,0,0-.2,0-.4,0h-2.7ZM129.5,82.2c.1,0,.2,0,.3,0,0,0,0-.1,0-.3l-1.3-3.5c0,0,0,0-.1,0s-.1,0-.1,0l-1.4,3.5c0,.1,0,.2,0,.3,0,0,.1,0,.2,0h2.4Z"/>
    <path class="cls-1" d="M136.8,84.6c0,.3,0,.5,0,.6s0,.3.1.4c0,.1.2.2.3.3.1,0,.3.1.6.1,0,0,.1,0,.1,0,0,0,0,0,0,.2s0,0,0,.1c0,0,0,0-.1,0-.2,0-.5,0-.8,0-.3,0-.6,0-.9,0s-.6,0-.9,0c-.3,0-.6,0-.8,0s0,0-.1,0c0,0,0,0,0-.1s0-.1,0-.2c0,0,0,0,.1,0,.3,0,.4,0,.6-.1.1,0,.2-.1.3-.3,0-.1,0-.2.1-.4,0-.2,0-.4,0-.6v-2.2c0-.5,0-.9,0-1.1,0-.3,0-.5-.1-.7,0-.2-.2-.3-.3-.3-.1,0-.3,0-.6,0,0,0,0,0-.1,0,0,0,0,0,0-.1,0,0,0,0,0-.1,0,0,0,0,.1,0,.2,0,.4,0,.8-.1.3,0,.7-.1,1.1-.2,0,0,0,0,.1,0,0,0,.1,0,.1,0,.1,0,.2,0,.3.1,0,0,.1.2,0,.3v.7c0,0,0,0,0,0,0,0,.1-.2.3-.3.1-.1.3-.3.5-.4.2-.1.4-.3.7-.4.3-.1.6-.2.9-.2.6,0,1.1.1,1.5.4.4.2.6.6.8,1.1,0-.1.1-.3.3-.4.1-.2.3-.3.5-.5.2-.2.5-.3.8-.4.3-.1.6-.2.9-.2.5,0,.9,0,1.2.2s.5.3.7.6c.2.3.3.6.3.9,0,.3,0,.7,0,1.1v2.4c0,.3,0,.5,0,.6,0,.2,0,.3,0,.4,0,.1.1.2.2.3.1,0,.3.1.5.1,0,0,.1,0,.1,0,0,0,0,0,0,.2s0,0,0,.1c0,0,0,0-.1,0-.1,0-.3,0-.6,0-.3,0-.6,0-.9,0s-.6,0-.9,0c-.3,0-.6,0-.8,0s0,0-.1,0c0,0,0,0,0-.1s0-.1,0-.2c0,0,0,0,.1,0,.2,0,.4,0,.6-.1.1,0,.2-.1.3-.3,0-.1,0-.2.1-.4,0-.2,0-.4,0-.6v-2c0-.3,0-.6,0-.8,0-.3,0-.6-.2-.8s-.2-.4-.4-.6c-.2-.2-.4-.2-.7-.2s-.5,0-.8.2c-.2.1-.5.3-.6.5s-.3.4-.4.7c-.1.2-.2.5-.2.7v2.3c0,.3,0,.5,0,.7,0,.2,0,.3,0,.4,0,.1.1.2.2.2.1,0,.3,0,.5.1,0,0,.1,0,.1,0,0,0,0,0,0,.2s0,0,0,.1c0,0,0,0-.1,0-.1,0-.3,0-.6,0-.3,0-.6,0-.9,0s-.6,0-.9,0c-.3,0-.5,0-.8,0s0,0-.1,0,0,0,0-.1,0-.1,0-.2c0,0,0,0,.1,0,.2,0,.4,0,.5-.1.1,0,.2-.1.3-.2,0,0,0-.2,0-.4,0-.2,0-.4,0-.7v-2c0-.3,0-.6,0-.8,0-.3,0-.6-.2-.8s-.2-.4-.4-.6c-.2-.2-.4-.2-.8-.2s-.6,0-.9.2c-.2.1-.4.3-.6.5-.2.2-.3.4-.3.7,0,.2-.1.5-.1.7v2.3Z"/>
    <path class="cls-1" d="M150,82.5c0,0,0,0,0,0,0,0,0,0,0,.1,0,.5,0,1,.2,1.3.1.4.3.7.5.9s.5.4.7.5.6.2.9.2.7,0,1,0c.3,0,.6-.2.8-.4,0,0,.1,0,.2,0,0,0,.1,0,.1,0,0,0,0,0,0,.1,0,0,0,0,0,.1-.3.4-.7.7-1.1.9-.4.2-.9.2-1.5.2s-1.1,0-1.6-.3-.8-.4-1.1-.8c-.3-.3-.5-.7-.6-1.2-.1-.4-.2-.9-.2-1.4s0-1,.3-1.4c.2-.4.4-.8.7-1.2.3-.3.7-.6,1.1-.8.4-.2.9-.3,1.4-.3s.8,0,1.2.2.6.3.9.6c.2.3.4.6.6.9.1.4.2.7.2,1.2s0,.3-.2.3h-4.3ZM152.8,82c.1,0,.2,0,.2-.2,0-.1,0-.2,0-.4,0-.2,0-.4,0-.6s-.2-.4-.3-.5c-.1-.2-.3-.3-.4-.4-.2,0-.4-.1-.6-.1s-.5,0-.7.1c-.2,0-.4.2-.5.4-.1.2-.2.3-.3.6,0,.2-.1.4-.2.7,0,.1,0,.2,0,.3,0,0,0,.1,0,.1h2.8Z"/>
    <path class="cls-1" d="M158,84.6c0,.3,0,.5,0,.6,0,.2,0,.3.2.4,0,.1.2.2.4.3s.5.1.8.1c0,0,.1,0,.1,0,0,0,0,0,0,.2s0,0,0,.1,0,0-.1,0c-.4,0-.8,0-1.2,0-.3,0-.7,0-1,0s-.6,0-1,0c-.3,0-.6,0-1,0s0,0-.1,0,0,0,0-.1,0-.1,0-.2c0,0,0,0,.1,0,.3,0,.5,0,.7-.1.2,0,.3-.1.3-.3,0-.1.1-.2.1-.4,0-.2,0-.4,0-.6v-2.2c0-.5,0-.9,0-1.2,0-.3,0-.5-.1-.7,0-.2-.2-.3-.4-.3-.2,0-.4,0-.7-.1,0,0,0,0-.1,0,0,0,0-.1,0-.2s0-.1,0-.2,0,0,.1,0c.2,0,.5,0,.8,0,.4,0,.7,0,1.1-.2.1,0,.3,0,.3,0s.1.1.1.3v1s0,0,0,0c0,0,0,0,0,0,.2-.4.5-.8.8-1,.3-.3.7-.4,1.2-.4s.7.1.9.3c.2.2.3.5.3.8s0,.3-.2.5c-.1.1-.3.2-.6.2s-.4,0-.5-.2c0-.1-.1-.2-.1-.4s0-.3,0-.3c0,0-.2-.1-.4-.1s-.4,0-.5.2c-.2.1-.3.3-.4.4-.1.2-.2.3-.3.5,0,.2,0,.3,0,.4v2.9Z"/>
    <path class="cls-1" d="M163.9,84.6c0,.3,0,.5,0,.6,0,.2,0,.3.1.4,0,.1.2.2.3.3.1,0,.3.1.5.1,0,0,.1,0,.1,0,0,0,0,0,0,.2s0,0,0,.1,0,0-.1,0c-.2,0-.4,0-.7,0-.3,0-.6,0-.9,0s-.6,0-.9,0c-.3,0-.6,0-.9,0s0,0-.1,0c0,0,0,0,0-.1s0-.1,0-.2c0,0,0,0,.1,0,.3,0,.5,0,.6-.1s.3-.1.3-.3c0-.1.1-.2.1-.4,0-.2,0-.4,0-.6v-2.4c0-.4,0-.8,0-1,0-.3,0-.5-.1-.6,0-.1-.2-.2-.3-.3-.1,0-.3,0-.6-.1,0,0-.1,0-.1,0,0,0,0-.1,0-.2s0-.1,0-.2c0,0,0,0,.1,0,.1,0,.2,0,.4,0s.3,0,.5,0c.2,0,.3,0,.5,0,.2,0,.3,0,.4,0,.1,0,.2,0,.3,0,0,0,.1,0,.2,0,.1,0,.2,0,.2.1,0,0,0,.1,0,.2v4.9ZM163.1,77.9c-.3,0-.5,0-.7-.2-.2-.2-.3-.4-.3-.6s0-.4.3-.6c.2-.2.4-.2.6-.2s.4,0,.6.3c.2.2.2.4.2.6s0,.4-.2.6c-.2.2-.3.2-.6.2Z"/>
    <path class="cls-1" d="M167.4,82.7c0,.4,0,.8.1,1.1s.2.7.4.9c.2.3.4.5.7.6.3.2.6.2,1.1.2s.7,0,1,0c.3,0,.6-.2.9-.4,0,0,0,0,.1,0,0,0,0,0,.1,0,0,0,0,0,0,.1,0,0,0,0,0,.1-.3.4-.7.7-1.2.9-.4.2-1,.2-1.6.2s-.8,0-1.2-.2c-.4-.1-.8-.3-1.1-.6-.3-.3-.6-.7-.8-1.1-.2-.5-.3-1.1-.3-1.8s0-1,.3-1.4c.2-.4.4-.8.7-1.1s.7-.6,1.2-.8c.5-.2,1-.3,1.6-.3s.6,0,.9.1c.3,0,.5.2.7.3.2.1.4.3.5.5.1.2.2.4.2.7s0,.4-.2.5-.3.2-.6.2-.4,0-.5-.2c-.1-.1-.2-.3-.2-.5s0-.3.1-.3c0,0,.1-.2.1-.3,0-.2-.1-.3-.4-.4-.2,0-.5-.1-.8-.1s-.7,0-1,.2c-.3.2-.5.4-.6.6-.2.3-.3.6-.4.9,0,.3-.1.7-.1,1Z"/>
    <path class="cls-1" d="M178.1,84.8c0,.4,0,.6,0,.7,0,.1.2.2.4.2s.2,0,.3,0c0,0,.2,0,.3-.2,0,0,0,0,0,0,0,0,0,0,0,0,0,0,0,0,0,.1,0,0,0,0,0,.1-.4.5-.9.7-1.4.7s-.5,0-.8-.2c-.2-.2-.4-.3-.5-.6,0,0,0,0,0,0-.3.2-.6.4-.9.6s-.8.2-1.3.2-1-.2-1.3-.5c-.3-.3-.5-.7-.5-1.3s.3-1.3,1-1.7c.7-.4,1.7-.6,3-.6s0,0,0,0c0,0,0-.2,0-.3v-.4c0-.3,0-.5,0-.7,0-.2-.1-.4-.2-.6,0-.2-.2-.3-.4-.4-.2,0-.4-.1-.6-.1-.4,0-.7,0-.9.2-.2.1-.3.3-.3.6s0,.2.1.3c0,.1.1.2.1.3s0,.3-.2.4c-.1.1-.3.2-.5.2s-.5,0-.6-.2c-.1-.1-.2-.3-.2-.5s0-.5.2-.7c.1-.2.3-.4.6-.6.2-.2.5-.3.8-.4.3,0,.7-.1,1-.1.8,0,1.4.2,1.9.6.5.4.7,1,.7,1.9v3ZM176.7,83.3c0-.1,0-.2,0-.2,0,0,0,0,0,0-.8,0-1.4.2-1.8.5-.4.3-.6.6-.6,1.1s0,.6.2.8c.2.2.4.3.8.3s.5,0,.7-.1c.3,0,.5-.2.7-.4,0,0,.1-.2.1-.2v-1.7Z"/>
    <path class="cls-1" d="M182.3,84.6c0,.3,0,.5,0,.6,0,.2,0,.3,0,.4,0,.1.1.2.2.3s.3.1.4.1c0,0,.1,0,.1,0,0,0,0,0,0,.2s0,0,0,.1c0,0,0,0-.1,0-.1,0-.3,0-.6,0-.3,0-.6,0-.9,0s-.6,0-.9,0c-.3,0-.6,0-.8,0s0,0-.1,0c0,0,0,0,0-.1s0-.1,0-.2c0,0,0,0,.1,0,.3,0,.4,0,.6-.1.1,0,.2-.1.3-.2s.1-.2.1-.4c0-.2,0-.4,0-.6v-1.9c0-.5,0-.9,0-1.2s0-.6-.1-.8c0-.2-.2-.3-.3-.4s-.3-.1-.6-.1-.1,0-.1,0c0,0,0,0,0-.1s0-.1,0-.2c0,0,0,0,.1,0,.2,0,.5,0,.8,0,.4,0,.7-.1,1.1-.3.1,0,.2,0,.3,0,0,0,.1.2.1.3v.6s0,0,0,0c0,0,0,0,0,0,0-.1.2-.2.3-.4.1-.1.3-.3.5-.4s.4-.2.6-.3c.2,0,.5-.1.7-.1.8,0,1.4.2,1.8.6.4.4.6,1.1.6,2v2.6c0,.3,0,.5,0,.7,0,.2,0,.3.1.4s.1.2.3.2c.1,0,.3,0,.5.1,0,0,.1,0,.1,0,0,0,0,0,0,.2s0,0,0,.1,0,0-.1,0c-.1,0-.3,0-.6,0-.3,0-.6,0-.9,0s-.6,0-.9,0c-.3,0-.5,0-.7,0s0,0-.1,0c0,0,0,0,0-.1s0-.1,0-.2c0,0,0,0,.1,0,.2,0,.4,0,.5-.1.1,0,.2-.1.3-.3,0-.1,0-.2,0-.4,0-.2,0-.4,0-.6v-2.3c0-.3,0-.5,0-.8s0-.5-.2-.7c0-.2-.2-.4-.4-.5-.2-.1-.4-.2-.7-.2s-.6,0-.8.1c-.2,0-.4.2-.6.4-.2.2-.3.4-.4.6,0,.2-.1.4-.1.7v2.6Z"/>
    <path class="cls-1" d="M195.9,84.3c0,.3,0,.6.1.8,0,.2.2.4.3.5.1.1.3.2.5.3s.5,0,.8.1c0,0,.1,0,.2,0,0,0,0,.1,0,.2s0,.1,0,.2c0,0,0,0-.2,0-.5,0-1,0-1.4,0-.4,0-.8,0-1.1,0s-.8,0-1.1,0c-.4,0-.7,0-1.1,0s-.1,0-.1,0c0,0,0-.1,0-.2,0,0,0-.1,0-.2,0,0,0,0,.2,0,.3,0,.5,0,.7-.1.2,0,.3-.1.4-.2.1-.1.2-.3.2-.4,0-.2,0-.4,0-.7v-5.7c0-.2,0-.4,0-.7,0-.2,0-.4,0-.6s-.1-.3-.2-.5-.3-.2-.4-.3c-.1,0-.2,0-.3,0-.1,0-.2,0-.3,0,0,0-.1,0-.1,0,0,0,0-.1,0-.2s0-.1,0-.2,0,0,.1,0c.3,0,.7,0,.9,0s.6,0,1,0c.6,0,1.1,0,1.5,0,.4,0,.8,0,1.1,0s.8,0,1.2.1c.4,0,.7.2,1,.4.3.2.5.5.7.8.2.3.3.7.3,1.2s-.1,1-.3,1.4c-.2.4-.5.7-.9.9-.4.2-.8.4-1.4.5-.5.1-1.1.2-1.7.2-.1,0-.2,0-.2,0,0,0,0,.1,0,.3v2.2ZM195.9,81c0,0,0,.1,0,.2,0,0,.1,0,.3,0,.5,0,.9,0,1.2-.1.3,0,.6-.2.8-.4.2-.2.3-.4.4-.7,0-.3.1-.6.1-1.1,0-.8-.1-1.4-.4-1.7s-.8-.5-1.5-.5-.7,0-.8.2-.2.3-.2.6v3.5Z"/>
    <path class="cls-1" d="M208.5,83.8c0,.4,0,.8,0,1,0,.3,0,.5.1.6,0,.1.2.2.3.3s.4,0,.6,0,0,0,0,0c0,0,0,0,0,.2s0,.1,0,.2c0,0,0,0-.1,0,0,0-.1,0-.2,0s-.1,0-.2,0c0,0-.1,0-.2,0s-.1,0-.3,0c0,0-.2,0-.3,0s-.3,0-.4,0-.3,0-.4,0c-.1,0-.2,0-.3,0-.2,0-.3-.3-.3-.8s0,0,0,0c0,0,0,0,0,0-.4.3-.8.5-1.1.7-.4.1-.7.2-1.1.2s-.8,0-1.2-.2c-.3-.1-.5-.3-.7-.5-.2-.2-.3-.5-.4-.8s-.1-.7-.1-1.1v-1.7c0-.4,0-.8,0-1,0-.2,0-.4-.1-.5,0-.1-.2-.2-.3-.2-.1,0-.3,0-.6-.1,0,0,0,0-.1,0,0,0,0-.1,0-.2,0,0,0-.1,0-.2,0,0,0,0,.1,0,.1,0,.2,0,.4,0s.3,0,.5,0c.2,0,.4,0,.6-.1.2,0,.4,0,.6-.1.1,0,.2,0,.3,0,0,0,0,.2,0,.2v3.6c0,.4,0,.7,0,1,0,.3,0,.5.2.7,0,.2.2.3.4.4.2,0,.4.1.6.1.3,0,.7,0,1.1-.2.4-.1.7-.3.8-.4,0,0,0,0,0-.2,0,0,0-.1,0-.2v-2.4c0-.4,0-.8,0-1s0-.4-.1-.5c0-.1-.2-.2-.3-.2-.1,0-.3,0-.6-.1,0,0,0,0-.1,0,0,0,0,0,0-.2,0,0,0-.1,0-.2,0,0,0,0,.1,0,.4,0,.7,0,1-.1.3,0,.6-.2,1-.3.1,0,.2,0,.3,0,0,0,0,.2,0,.2v4Z"/>
    <path class="cls-1" d="M211.2,78.7c0-.4,0-.8,0-1,0-.3,0-.5-.1-.6,0-.1-.2-.2-.3-.3s-.3,0-.6-.1c0,0,0,0-.1,0s0-.1,0-.2c0,0,0-.1,0-.2,0,0,0,0,.1,0,.3,0,.6,0,1,0,.4,0,.7-.1,1.1-.2.1,0,.2,0,.3,0s0,.1,0,.2v4.4s0,0,0,0c0,0,0,0,0,0,.2-.3.5-.6.8-.8.4-.2.8-.3,1.3-.3s.8,0,1.2.3c.3.2.6.4.8.7.2.3.4.7.5,1.1.1.4.2.8.2,1.3,0,.7-.1,1.2-.3,1.7-.2.5-.5.9-.8,1.2-.4.3-.8.6-1.2.7-.5.2-1,.2-1.5.2s-.7,0-1.1,0c-.4,0-.8-.2-1.3-.3v-7.4ZM212.6,84.9c0,0,0,.2.1.3,0,.1.2.2.3.3.1.1.3.2.5.3.2,0,.4.1.6.1.4,0,.7,0,.9-.3s.4-.4.6-.7c.1-.3.2-.6.3-1,0-.4,0-.8,0-1.2s0-.7,0-1c0-.3-.1-.6-.2-.8-.1-.2-.3-.4-.4-.6-.2-.1-.4-.2-.8-.2s-.5,0-.7.2c-.2.1-.4.2-.6.4-.2.1-.3.3-.4.5,0,.2-.1.3-.1.5v3.2Z"/>
    <path class="cls-1" d="M219.8,78.7c0-.4,0-.8,0-1,0-.3,0-.5-.2-.6,0-.1-.2-.2-.4-.3-.2,0-.4,0-.7-.1,0,0,0,0-.1,0,0,0,0-.1,0-.2,0,0,0-.1,0-.2,0,0,0,0,.1,0,.3,0,.7,0,1.1,0,.4,0,.8-.1,1.2-.2.1,0,.2,0,.3,0,0,0,0,.1,0,.2v8.5c0,.3,0,.5,0,.6s0,.3.1.4c0,.1.2.2.3.3s.4.1.6.1c0,0,.1,0,.1,0,0,0,0,0,0,.2s0,0,0,.1c0,0,0,0-.1,0-.2,0-.5,0-.8,0-.3,0-.6,0-.9,0s-.6,0-1,0c-.3,0-.6,0-1,0s0,0-.1,0,0,0,0-.1,0-.1,0-.2c0,0,0,0,.1,0,.3,0,.5,0,.7-.1.2,0,.3-.1.3-.3,0-.1.1-.2.1-.4,0-.2,0-.4,0-.6v-6Z"/>
    <path class="cls-1" d="M225.7,84.6c0,.3,0,.5,0,.6,0,.2,0,.3.1.4,0,.1.2.2.3.3.1,0,.3.1.5.1,0,0,.1,0,.1,0,0,0,0,0,0,.2s0,0,0,.1,0,0-.1,0c-.2,0-.4,0-.7,0-.3,0-.6,0-.9,0s-.6,0-.9,0c-.3,0-.6,0-.9,0s0,0-.1,0c0,0,0,0,0-.1s0-.1,0-.2c0,0,0,0,.1,0,.3,0,.5,0,.6-.1s.3-.1.3-.3c0-.1.1-.2.1-.4,0-.2,0-.4,0-.6v-2.4c0-.4,0-.8,0-1,0-.3,0-.5-.1-.6,0-.1-.2-.2-.3-.3-.1,0-.3,0-.6-.1,0,0-.1,0-.1,0,0,0,0-.1,0-.2s0-.1,0-.2c0,0,0,0,.1,0,.1,0,.2,0,.4,0s.3,0,.5,0c.2,0,.3,0,.5,0,.2,0,.3,0,.4,0,.1,0,.2,0,.3,0,0,0,.1,0,.2,0,.1,0,.2,0,.2.1,0,0,0,.1,0,.2v4.9ZM224.9,77.9c-.3,0-.5,0-.7-.2-.2-.2-.3-.4-.3-.6s0-.4.3-.6c.2-.2.4-.2.6-.2s.4,0,.6.3c.2.2.2.4.2.6s0,.4-.2.6c-.2.2-.3.2-.6.2Z"/>
    <path class="cls-1" d="M229.2,82.7c0,.4,0,.8.1,1.1s.2.7.4.9c.2.3.4.5.7.6.3.2.6.2,1.1.2s.7,0,1,0c.3,0,.6-.2.9-.4,0,0,0,0,.1,0,0,0,0,0,.1,0,0,0,0,0,0,.1,0,0,0,0,0,.1-.3.4-.7.7-1.2.9-.4.2-1,.2-1.6.2s-.8,0-1.2-.2c-.4-.1-.8-.3-1.1-.6-.3-.3-.6-.7-.8-1.1-.2-.5-.3-1.1-.3-1.8s0-1,.3-1.4c.2-.4.4-.8.7-1.1s.7-.6,1.2-.8c.5-.2,1-.3,1.6-.3s.6,0,.9.1c.3,0,.5.2.7.3.2.1.4.3.5.5.1.2.2.4.2.7s0,.4-.2.5-.3.2-.6.2-.4,0-.5-.2c-.1-.1-.2-.3-.2-.5s0-.3.1-.3c0,0,.1-.2.1-.3,0-.2-.1-.3-.4-.4-.2,0-.5-.1-.8-.1s-.7,0-1,.2c-.3.2-.5.4-.6.6-.2.3-.3.6-.4.9,0,.3-.1.7-.1,1Z"/>
    <path class="cls-1" d="M248,82.4c0,.7,0,1.2-.2,1.8s-.4,1-.7,1.3c-.3.4-.7.6-1.3.8s-1.1.3-1.9.3-1.3,0-1.8-.2c-.5-.1-1-.4-1.3-.7-.3-.3-.6-.7-.8-1.2-.2-.5-.2-1.1-.2-1.8v-4.2c0-.3,0-.6,0-.8,0-.2-.1-.4-.2-.5-.1-.1-.2-.3-.4-.3s-.4-.1-.8-.1c0,0-.1,0-.1,0,0,0,0-.1,0-.2s0-.1,0-.2,0,0,.1,0c.3,0,.7,0,1.1,0,.4,0,.8,0,1.2,0s.4,0,.6,0c.2,0,.4,0,.5,0,.2,0,.4,0,.5,0,.2,0,.4,0,.6,0s.1,0,.1,0c0,0,0,.1,0,.2,0,0,0,.1,0,.2,0,0,0,0-.1,0-.3,0-.6,0-.8.1-.2,0-.3.2-.4.3-.1.1-.2.3-.2.5,0,.2,0,.5,0,.8v4.1c0,.4,0,.8.2,1.2.1.4.3.7.5,1,.2.3.5.5.9.7.3.2.7.3,1.2.3,1,0,1.7-.3,2.2-.8.5-.5.8-1.4.8-2.6v-3.2c0-.2,0-.5,0-.7,0-.2,0-.5,0-.7,0-.2,0-.4,0-.5,0-.2-.1-.3-.2-.4,0,0-.1-.1-.2-.2,0,0-.2,0-.3,0-.1,0-.3,0-.5,0,0,0,0,0-.1,0,0,0,0-.1,0-.2s0-.1,0-.2c0,0,0,0,.1,0,.2,0,.5,0,.8,0,.3,0,.6,0,.8,0s.5,0,.8,0c.3,0,.6,0,.9,0s.1,0,.1,0,0,.1,0,.2,0,.1,0,.2c0,0,0,0-.1,0-.2,0-.3,0-.4,0-.1,0-.2,0-.3,0,0,0-.1.1-.2.2,0,0-.1.2-.2.4,0,.1,0,.3-.1.5,0,.2,0,.4,0,.7,0,.2,0,.5,0,.7,0,.2,0,.5,0,.6v2.5Z"/>
    <path class="cls-1" d="M252,84.6c0,.3,0,.5,0,.6,0,.2,0,.3,0,.4,0,.1.1.2.2.3s.3.1.4.1c0,0,.1,0,.1,0,0,0,0,0,0,.2s0,0,0,.1c0,0,0,0-.1,0-.1,0-.3,0-.6,0-.3,0-.6,0-.9,0s-.6,0-.9,0c-.3,0-.6,0-.8,0s0,0-.1,0c0,0,0,0,0-.1s0-.1,0-.2c0,0,0,0,.1,0,.3,0,.4,0,.6-.1.1,0,.2-.1.3-.2s.1-.2.1-.4c0-.2,0-.4,0-.6v-1.9c0-.5,0-.9,0-1.2s0-.6-.1-.8c0-.2-.2-.3-.3-.4s-.3-.1-.6-.1-.1,0-.1,0c0,0,0,0,0-.1s0-.1,0-.2c0,0,0,0,.1,0,.2,0,.5,0,.8,0,.4,0,.7-.1,1.1-.3.1,0,.2,0,.3,0,0,0,.1.2.1.3v.6s0,0,0,0c0,0,0,0,0,0,0-.1.2-.2.3-.4.1-.1.3-.3.5-.4s.4-.2.6-.3c.2,0,.5-.1.7-.1.8,0,1.4.2,1.8.6.4.4.6,1.1.6,2v2.6c0,.3,0,.5,0,.7,0,.2,0,.3.1.4s.1.2.3.2c.1,0,.3,0,.5.1,0,0,.1,0,.1,0,0,0,0,0,0,.2s0,0,0,.1,0,0-.1,0c-.1,0-.3,0-.6,0-.3,0-.6,0-.9,0s-.6,0-.9,0c-.3,0-.5,0-.7,0s0,0-.1,0c0,0,0,0,0-.1s0-.1,0-.2c0,0,0,0,.1,0,.2,0,.4,0,.5-.1.1,0,.2-.1.3-.3,0-.1,0-.2,0-.4,0-.2,0-.4,0-.6v-2.3c0-.3,0-.5,0-.8s0-.5-.2-.7c0-.2-.2-.4-.4-.5-.2-.1-.4-.2-.7-.2s-.6,0-.8.1c-.2,0-.4.2-.6.4-.2.2-.3.4-.4.6,0,.2-.1.4-.1.7v2.6Z"/>
    <path class="cls-1" d="M260.8,84.6c0,.3,0,.5,0,.6,0,.2,0,.3.1.4,0,.1.2.2.3.3.1,0,.3.1.5.1,0,0,.1,0,.1,0,0,0,0,0,0,.2s0,0,0,.1,0,0-.1,0c-.2,0-.4,0-.7,0-.3,0-.6,0-.9,0s-.6,0-.9,0c-.3,0-.6,0-.9,0s0,0-.1,0c0,0,0,0,0-.1s0-.1,0-.2c0,0,0,0,.1,0,.3,0,.5,0,.6-.1s.3-.1.3-.3c0-.1.1-.2.1-.4,0-.2,0-.4,0-.6v-2.4c0-.4,0-.8,0-1,0-.3,0-.5-.1-.6,0-.1-.2-.2-.3-.3-.1,0-.3,0-.6-.1,0,0-.1,0-.1,0,0,0,0-.1,0-.2s0-.1,0-.2c0,0,0,0,.1,0,.1,0,.2,0,.4,0s.3,0,.5,0c.2,0,.3,0,.5,0,.2,0,.3,0,.4,0,.1,0,.2,0,.3,0,0,0,.1,0,.2,0,.1,0,.2,0,.2.1,0,0,0,.1,0,.2v4.9ZM260,77.9c-.3,0-.5,0-.7-.2-.2-.2-.3-.4-.3-.6s0-.4.3-.6c.2-.2.4-.2.6-.2s.4,0,.6.3c.2.2.2.4.2.6s0,.4-.2.6c-.2.2-.3.2-.6.2Z"/>
    <path class="cls-1" d="M268.6,81.5c-.7,1.7-1.4,3.4-2.2,5.1,0,0,0,0,0,0,0,0,0,0-.1,0s0,0-.1,0c0,0,0,0,0,0-.4-.9-.8-1.7-1.2-2.6s-.8-1.7-1.1-2.7c-.1-.2-.2-.4-.3-.6,0-.2-.2-.3-.2-.4,0-.1-.2-.2-.3-.2-.1,0-.3,0-.4-.1,0,0,0,0-.1,0,0,0,0,0,0-.1s0-.1,0-.2,0,0,.1,0c.3,0,.6,0,.9,0,.3,0,.6,0,.9,0s.6,0,.9,0c.3,0,.6,0,.9,0s0,0,.1,0,0,0,0,.2,0,.1,0,.2c0,0,0,0-.1,0-.3,0-.5,0-.7.2-.1,0-.2.2-.2.4s0,.3.1.6c.2.6.5,1.2.7,1.8s.5,1.2.8,1.7c0,0,0,0,0,0,0,0,0,0,0,0,.1-.2.2-.5.3-.8.1-.3.3-.7.4-1,.1-.3.2-.7.4-1,.1-.3.2-.6.3-.9,0-.1,0-.3,0-.4,0-.3,0-.4-.2-.5-.2,0-.3-.1-.5-.1,0,0-.1,0-.1,0,0,0,0-.1,0-.2,0,0,0,0,0-.1s0,0,.1,0c.2,0,.4,0,.6,0,.2,0,.4,0,.6,0s.5,0,.7,0c.2,0,.4,0,.6,0s.1,0,.1,0c0,0,0,0,0,.2s0,.1,0,.2c0,0,0,0-.1,0-.2,0-.4,0-.5.1-.1,0-.3.2-.4.3-.1.1-.2.3-.3.5,0,.2-.2.4-.2.6Z"/>
    <path class="cls-1" d="M272.2,82.5c0,0,0,0,0,0,0,0,0,0,0,.1,0,.5,0,1,.2,1.3.1.4.3.7.5.9s.5.4.7.5.6.2.9.2.7,0,1,0c.3,0,.6-.2.8-.4,0,0,.1,0,.2,0,0,0,.1,0,.1,0,0,0,0,0,0,.1,0,0,0,0,0,.1-.3.4-.7.7-1.1.9-.4.2-.9.2-1.5.2s-1.1,0-1.6-.3-.8-.4-1.1-.8c-.3-.3-.5-.7-.6-1.2-.1-.4-.2-.9-.2-1.4s0-1,.3-1.4c.2-.4.4-.8.7-1.2.3-.3.7-.6,1.1-.8.4-.2.9-.3,1.4-.3s.8,0,1.2.2.6.3.9.6c.2.3.4.6.6.9.1.4.2.7.2,1.2s0,.3-.2.3h-4.3ZM274.9,82c.1,0,.2,0,.2-.2,0-.1,0-.2,0-.4,0-.2,0-.4,0-.6s-.2-.4-.3-.5c-.1-.2-.3-.3-.4-.4-.2,0-.4-.1-.6-.1s-.5,0-.7.1c-.2,0-.4.2-.5.4-.1.2-.2.3-.3.6,0,.2-.1.4-.2.7,0,.1,0,.2,0,.3,0,0,0,.1,0,.1h2.8Z"/>
    <path class="cls-1" d="M280.1,84.6c0,.3,0,.5,0,.6,0,.2,0,.3.2.4,0,.1.2.2.4.3s.5.1.8.1c0,0,.1,0,.1,0,0,0,0,0,0,.2s0,0,0,.1,0,0-.1,0c-.4,0-.8,0-1.2,0-.3,0-.7,0-1,0s-.6,0-1,0c-.3,0-.6,0-1,0s0,0-.1,0,0,0,0-.1,0-.1,0-.2c0,0,0,0,.1,0,.3,0,.5,0,.7-.1.2,0,.3-.1.3-.3,0-.1.1-.2.1-.4,0-.2,0-.4,0-.6v-2.2c0-.5,0-.9,0-1.2,0-.3,0-.5-.1-.7,0-.2-.2-.3-.4-.3-.2,0-.4,0-.7-.1,0,0,0,0-.1,0,0,0,0-.1,0-.2s0-.1,0-.2,0,0,.1,0c.2,0,.5,0,.8,0,.4,0,.7,0,1.1-.2.1,0,.3,0,.3,0s.1.1.1.3v1s0,0,0,0c0,0,0,0,0,0,.2-.4.5-.8.8-1,.3-.3.7-.4,1.2-.4s.7.1.9.3c.2.2.3.5.3.8s0,.3-.2.5c-.1.1-.3.2-.6.2s-.4,0-.5-.2c0-.1-.1-.2-.1-.4s0-.3,0-.3c0,0-.2-.1-.4-.1s-.4,0-.5.2c-.2.1-.3.3-.4.4-.1.2-.2.3-.3.5,0,.2,0,.3,0,.4v2.9Z"/>
    <path class="cls-1" d="M288.4,79.5c0,.1,0,.2,0,.4,0,.2,0,.3,0,.5s0,.4,0,.6c0,.2,0,.4,0,.5s0,0,0,0c0,0,0,0-.1,0,0,0,0,0-.1,0,0,0,0,0,0,0-.1-.5-.3-.9-.5-1.2-.3-.3-.7-.4-1.2-.4s-.7,0-.9.3c-.2.2-.4.4-.4.8s.1.5.3.6c.2.1.5.3.8.4.1,0,.3.1.5.2s.4.1.5.2c.3.1.5.2.7.4.2.1.4.3.6.5s.3.4.4.6c0,.2.1.5.1.8s0,.7-.2,1c-.2.3-.4.5-.6.6-.3.2-.5.3-.9.3-.3,0-.6.1-1,.1s-.6,0-.9,0c-.3,0-.6-.1-.8-.3,0,0-.1,0-.2,0,0,0-.1.1-.1.2,0,0,0,0,0,0,0,0,0,0-.1,0s0,0-.1,0c0,0,0,0,0,0,0,0,0-.2,0-.3s0-.3,0-.4,0-.3,0-.4c0-.1,0-.3,0-.4,0-.1,0-.3,0-.4,0-.1,0-.2,0-.2s0,0,0,0c0,0,0,0,.1,0,0,0,0,0,.1,0,0,0,0,0,0,0,0,.3.2.6.3.8s.3.4.4.6.4.3.6.3c.2,0,.5.1.9.1s.7-.1.9-.3c.2-.2.3-.5.3-.8s-.1-.6-.3-.8c-.2-.2-.5-.4-.8-.5-.1,0-.3-.1-.4-.2-.1,0-.3-.1-.4-.2-.2,0-.4-.2-.7-.3-.2,0-.4-.2-.6-.4-.2-.1-.3-.3-.4-.5-.1-.2-.2-.5-.2-.8s0-.7.2-.9c.2-.3.4-.5.6-.6.2-.2.5-.3.8-.3s.6-.1.9-.1.5,0,.8,0,.5.2.7.4c0,0,0,0,.2,0,0,0,.1-.1.2-.3,0,0,0,0,0,0,0,0,.1,0,.2,0,0,0,0,0,.1,0,0,0,0,0,0,0Z"/>
    <path class="cls-1" d="M292,84.6c0,.3,0,.5,0,.6,0,.2,0,.3.1.4,0,.1.2.2.3.3.1,0,.3.1.5.1,0,0,.1,0,.1,0,0,0,0,0,0,.2s0,0,0,.1,0,0-.1,0c-.2,0-.4,0-.7,0-.3,0-.6,0-.9,0s-.6,0-.9,0c-.3,0-.6,0-.9,0s0,0-.1,0c0,0,0,0,0-.1s0-.1,0-.2c0,0,0,0,.1,0,.3,0,.5,0,.6-.1s.3-.1.3-.3c0-.1.1-.2.1-.4,0-.2,0-.4,0-.6v-2.4c0-.4,0-.8,0-1,0-.3,0-.5-.1-.6,0-.1-.2-.2-.3-.3-.1,0-.3,0-.6-.1,0,0-.1,0-.1,0,0,0,0-.1,0-.2s0-.1,0-.2c0,0,0,0,.1,0,.1,0,.2,0,.4,0s.3,0,.5,0c.2,0,.3,0,.5,0,.2,0,.3,0,.4,0,.1,0,.2,0,.3,0,0,0,.1,0,.2,0,.1,0,.2,0,.2.1,0,0,0,.1,0,.2v4.9ZM291.2,77.9c-.3,0-.5,0-.7-.2-.2-.2-.3-.4-.3-.6s0-.4.3-.6c.2-.2.4-.2.6-.2s.4,0,.6.3c.2.2.2.4.2.6s0,.4-.2.6c-.2.2-.3.2-.6.2Z"/>
    <path class="cls-1" d="M295.9,84.1c0,.6,0,1,.2,1.3.1.3.4.4.7.4s.5,0,.7-.1c.2,0,.4-.1.5-.2,0,0,0,0,.1,0,0,0,0,0,.1,0,0,0,0,0,0,.1,0,0,0,0,0,.1-.2.3-.4.5-.8.7-.3.1-.7.2-1.1.2-.7,0-1.2-.2-1.5-.5-.3-.3-.4-.8-.4-1.4v-3.9c0-.1,0-.2,0-.3,0,0,0-.1,0-.2,0,0-.1,0-.3,0-.1,0-.3,0-.5,0s0,0,0,0c0,0,0-.1,0-.2,0,0,0-.1,0-.2,0,0,0,0,0,0,.3,0,.5,0,.7-.1.2,0,.3-.1.5-.3.1-.1.2-.3.3-.5,0-.2.1-.5.2-.8,0,0,0-.1.1-.1,0,0,.1,0,.2,0s.2,0,.2,0c0,0,0,0,0,0v1.3c0,.2,0,.3,0,.3,0,0,0,0,.2,0h1.6c0,0,.1,0,.1.1,0,0,0,.2,0,.2s0,.1,0,.2c0,0,0,.1-.2.1h-1.6c0,0-.1,0-.1,0,0,0,0,.2,0,.4v3.4Z"/>
    <path class="cls-1" d="M302.6,84.5c0,0,0,0,.1,0s0,0,0,0c.3-.6.6-1.2.8-1.8.2-.6.4-1.1.6-1.6,0-.2.1-.3.1-.5s0-.2,0-.3c0,0-.1-.1-.2-.2,0,0-.2,0-.3,0,0,0-.2,0-.3,0,0,0-.1,0-.1,0s0,0,0-.1,0,0,0-.1c0,0,0,0,.1,0,.2,0,.4,0,.6,0,.2,0,.4,0,.6,0s.5,0,.7,0c.2,0,.4,0,.6,0s0,0,.1,0c0,0,0,0,0,.2s0,0,0,.1c0,0,0,0-.1,0-.2,0-.3,0-.4.1s-.2.1-.3.2c0,0-.1.2-.2.4,0,.1-.2.3-.2.5-.3.6-.6,1.3-.9,2-.3.7-.6,1.5-1,2.2-.3.7-.7,1.4-1,2.1s-.7,1.3-1,1.9c0,.2-.2.3-.3.5s-.3.4-.4.6c-.2.2-.4.3-.6.4s-.4.2-.7.2-.5,0-.7-.2c-.2-.1-.3-.3-.3-.6s0-.4.2-.5c.1-.2.3-.2.5-.2s.2,0,.2,0c0,0,0,0,.1.1,0,0,0,0,.2.1,0,0,.1,0,.2,0s.2,0,.4-.2c.1-.1.3-.3.4-.5.2-.2.3-.5.5-.7.2-.3.3-.5.4-.8.1-.3.2-.5.3-.7,0-.2.2-.3.2-.4,0-.1,0-.2,0-.3s0-.2,0-.3c-.3-.7-.7-1.4-1.1-2.2-.4-.8-.8-1.6-1.1-2.5-.1-.2-.2-.4-.3-.6,0-.2-.2-.3-.3-.4,0,0-.2-.2-.3-.2-.1,0-.3,0-.4-.1,0,0,0,0-.1,0,0,0,0,0,0-.1s0,0,0-.1c0,0,0,0,.1,0,.3,0,.6,0,.9,0,.3,0,.6,0,.9,0s.6,0,.9,0c.3,0,.6,0,.9,0s0,0,.1,0c0,0,0,0,0,.1s0,0,0,.1c0,0,0,0-.1,0-.3,0-.6.1-.7.2-.1,0-.2.2-.2.3,0,.2,0,.4.1.6.2.6.4,1.1.7,1.7.3.6.5,1.1.8,1.6Z"/>
    <path class="cls-1" d="M312,78.2c0,.3,0,.6.2.8.1.2.3.4.5.5.2.1.4.3.7.4.2.1.5.2.7.3.4.2.8.4,1.1.6.4.2.7.4,1,.7s.5.6.7,1c.2.4.3.8.3,1.3s-.1,1-.3,1.3c-.2.4-.5.7-.8.9s-.7.4-1.2.5c-.4.1-.9.2-1.3.2s-.6,0-1-.1-.7-.2-1-.4c0,0,0,0-.1,0s-.1,0-.2,0-.1,0-.2,0c0,0-.2.2-.2.3,0,0,0,.1-.1.1,0,0-.1,0-.2,0,0,0-.1,0-.1,0,0,0,0,0,0-.1,0-.2,0-.5,0-.7,0-.3,0-.5,0-.8s0-.5,0-.8c0-.3,0-.5,0-.8,0,0,0-.1,0-.2,0,0,.1,0,.2,0,0,0,.1,0,.2,0,0,0,0,0,0,.1,0,.4.2.8.3,1.1s.4.6.6.9c.2.2.5.4.8.6.3.1.6.2,1,.2s.5,0,.8-.1c.2,0,.5-.2.7-.3.2-.1.3-.3.5-.5.1-.2.2-.5.2-.7s0-.7-.2-1c-.2-.3-.4-.5-.6-.7s-.5-.4-.8-.5c-.3-.1-.6-.3-.8-.4-.3-.2-.7-.3-1-.5-.3-.2-.6-.4-.9-.6-.3-.2-.5-.5-.6-.8-.2-.3-.2-.7-.2-1.2s0-.9.3-1.2.5-.6.8-.8c.3-.2.7-.3,1.1-.4.4,0,.8-.1,1.3-.1s.5,0,.7,0c.2,0,.4,0,.7.2.1,0,.2,0,.3,0,0,0,.2,0,.3,0,.1,0,.2,0,.3-.2,0,0,0,0,.1,0,0,0,.1,0,.2,0,0,0,0,0,.1,0,0,0,0,0,0,0,0,.2,0,.4,0,.5s0,.4,0,.6,0,.5,0,.7c0,.2,0,.5,0,.8,0,0,0,0,0,0,0,0,0,0-.1,0,0,0-.1,0-.2,0,0,0,0,0,0-.1-.1-.4-.2-.8-.3-1.1s-.3-.5-.5-.7c-.2-.2-.4-.3-.7-.3-.3,0-.6,0-.9,0s-.5,0-.7,0-.4.2-.6.3c-.2.1-.3.3-.4.5s-.2.4-.2.7Z"/>
    <path class="cls-1" d="M322.1,84.5c0,0,0,0,.1,0s0,0,0,0c.3-.6.6-1.2.8-1.8.2-.6.4-1.1.6-1.6,0-.2.1-.3.1-.5s0-.2,0-.3c0,0-.1-.1-.2-.2,0,0-.2,0-.3,0,0,0-.2,0-.3,0,0,0-.1,0-.1,0s0,0,0-.1,0,0,0-.1c0,0,0,0,.1,0,.2,0,.4,0,.6,0,.2,0,.4,0,.6,0s.5,0,.7,0c.2,0,.4,0,.6,0s0,0,.1,0c0,0,0,0,0,.2s0,0,0,.1c0,0,0,0-.1,0-.2,0-.3,0-.4.1s-.2.1-.3.2c0,0-.1.2-.2.4,0,.1-.2.3-.2.5-.3.6-.6,1.3-.9,2-.3.7-.6,1.5-1,2.2-.3.7-.7,1.4-1,2.1s-.7,1.3-1,1.9c0,.2-.2.3-.3.5s-.3.4-.4.6c-.2.2-.4.3-.6.4s-.4.2-.7.2-.5,0-.7-.2c-.2-.1-.3-.3-.3-.6s0-.4.2-.5c.1-.2.3-.2.5-.2s.2,0,.2,0c0,0,0,0,.1.1,0,0,0,0,.2.1,0,0,.1,0,.2,0s.2,0,.4-.2c.1-.1.3-.3.4-.5.2-.2.3-.5.5-.7.2-.3.3-.5.4-.8.1-.3.2-.5.3-.7,0-.2.2-.3.2-.4,0-.1,0-.2,0-.3s0-.2,0-.3c-.3-.7-.7-1.4-1.1-2.2-.4-.8-.8-1.6-1.1-2.5-.1-.2-.2-.4-.3-.6,0-.2-.2-.3-.3-.4,0,0-.2-.2-.3-.2-.1,0-.3,0-.4-.1,0,0,0,0-.1,0,0,0,0,0,0-.1s0,0,0-.1c0,0,0,0,.1,0,.3,0,.6,0,.9,0,.3,0,.6,0,.9,0s.6,0,.9,0c.3,0,.6,0,.9,0s0,0,.1,0c0,0,0,0,0,.1s0,0,0,.1c0,0,0,0-.1,0-.3,0-.6.1-.7.2-.1,0-.2.2-.2.3,0,.2,0,.4.1.6.2.6.4,1.1.7,1.7.3.6.5,1.1.8,1.6Z"/>
    <path class="cls-1" d="M330.7,79.5c0,.1,0,.2,0,.4,0,.2,0,.3,0,.5s0,.4,0,.6c0,.2,0,.4,0,.5s0,0,0,0c0,0,0,0-.1,0,0,0,0,0-.1,0,0,0,0,0,0,0-.1-.5-.3-.9-.5-1.2-.3-.3-.7-.4-1.2-.4s-.7,0-.9.3c-.2.2-.4.4-.4.8s.1.5.3.6c.2.1.5.3.8.4.1,0,.3.1.5.2s.4.1.5.2c.3.1.5.2.7.4.2.1.4.3.6.5s.3.4.4.6c0,.2.1.5.1.8s0,.7-.2,1c-.2.3-.4.5-.6.6-.3.2-.5.3-.9.3-.3,0-.6.1-1,.1s-.6,0-.9,0c-.3,0-.6-.1-.8-.3,0,0-.1,0-.2,0,0,0-.1.1-.1.2,0,0,0,0,0,0,0,0,0,0-.1,0s0,0-.1,0c0,0,0,0,0,0,0,0,0-.2,0-.3s0-.3,0-.4,0-.3,0-.4c0-.1,0-.3,0-.4,0-.1,0-.3,0-.4,0-.1,0-.2,0-.2s0,0,0,0c0,0,0,0,.1,0,0,0,0,0,.1,0,0,0,0,0,0,0,0,.3.2.6.3.8s.3.4.4.6.4.3.6.3c.2,0,.5.1.9.1s.7-.1.9-.3c.2-.2.3-.5.3-.8s-.1-.6-.3-.8c-.2-.2-.5-.4-.8-.5-.1,0-.3-.1-.4-.2-.1,0-.3-.1-.4-.2-.2,0-.4-.2-.7-.3-.2,0-.4-.2-.6-.4-.2-.1-.3-.3-.4-.5-.1-.2-.2-.5-.2-.8s0-.7.2-.9c.2-.3.4-.5.6-.6.2-.2.5-.3.8-.3s.6-.1.9-.1.5,0,.8,0,.5.2.7.4c0,0,0,0,.2,0,0,0,.1-.1.2-.3,0,0,0,0,0,0,0,0,.1,0,.2,0,0,0,0,0,.1,0,0,0,0,0,0,0Z"/>
    <path class="cls-1" d="M333.9,84.1c0,.6,0,1,.2,1.3.1.3.4.4.7.4s.5,0,.7-.1c.2,0,.4-.1.5-.2,0,0,0,0,.1,0,0,0,0,0,.1,0,0,0,0,0,0,.1,0,0,0,0,0,.1-.2.3-.4.5-.8.7-.3.1-.7.2-1.1.2-.7,0-1.2-.2-1.5-.5-.3-.3-.4-.8-.4-1.4v-3.9c0-.1,0-.2,0-.3,0,0,0-.1,0-.2,0,0-.1,0-.3,0-.1,0-.3,0-.5,0s0,0,0,0c0,0,0-.1,0-.2,0,0,0-.1,0-.2,0,0,0,0,0,0,.3,0,.5,0,.7-.1.2,0,.3-.1.5-.3.1-.1.2-.3.3-.5,0-.2.1-.5.2-.8,0,0,0-.1.1-.1,0,0,.1,0,.2,0s.2,0,.2,0c0,0,0,0,0,0v1.3c0,.2,0,.3,0,.3,0,0,0,0,.2,0h1.6c0,0,.1,0,.1.1,0,0,0,.2,0,.2s0,.1,0,.2c0,0,0,.1-.2.1h-1.6c0,0-.1,0-.1,0,0,0,0,.2,0,.4v3.4Z"/>
    <path class="cls-1" d="M338.6,82.5c0,0,0,0,0,0,0,0,0,0,0,.1,0,.5,0,1,.2,1.3.1.4.3.7.5.9s.5.4.7.5.6.2.9.2.7,0,1,0c.3,0,.6-.2.8-.4,0,0,.1,0,.2,0,0,0,.1,0,.1,0,0,0,0,0,0,.1,0,0,0,0,0,.1-.3.4-.7.7-1.1.9-.4.2-.9.2-1.5.2s-1.1,0-1.6-.3-.8-.4-1.1-.8c-.3-.3-.5-.7-.6-1.2-.1-.4-.2-.9-.2-1.4s0-1,.3-1.4c.2-.4.4-.8.7-1.2.3-.3.7-.6,1.1-.8.4-.2.9-.3,1.4-.3s.8,0,1.2.2.6.3.9.6c.2.3.4.6.6.9.1.4.2.7.2,1.2s0,.3-.2.3h-4.3ZM341.3,82c.1,0,.2,0,.2-.2,0-.1,0-.2,0-.4,0-.2,0-.4,0-.6s-.2-.4-.3-.5c-.1-.2-.3-.3-.4-.4-.2,0-.4-.1-.6-.1s-.5,0-.7.1c-.2,0-.4.2-.5.4-.1.2-.2.3-.3.6,0,.2-.1.4-.2.7,0,.1,0,.2,0,.3,0,0,0,.1,0,.1h2.8Z"/>
    <path class="cls-1" d="M346.5,84.6c0,.3,0,.5,0,.6s0,.3.1.4c0,.1.2.2.3.3.1,0,.3.1.6.1,0,0,.1,0,.1,0,0,0,0,0,0,.2s0,0,0,.1c0,0,0,0-.1,0-.2,0-.5,0-.8,0-.3,0-.6,0-.9,0s-.6,0-.9,0c-.3,0-.6,0-.8,0s0,0-.1,0c0,0,0,0,0-.1s0-.1,0-.2c0,0,0,0,.1,0,.3,0,.4,0,.6-.1.1,0,.2-.1.3-.3,0-.1,0-.2.1-.4,0-.2,0-.4,0-.6v-2.2c0-.5,0-.9,0-1.1,0-.3,0-.5-.1-.7,0-.2-.2-.3-.3-.3-.1,0-.3,0-.6,0,0,0,0,0-.1,0,0,0,0,0,0-.1,0,0,0,0,0-.1,0,0,0,0,.1,0,.2,0,.4,0,.8-.1.3,0,.7-.1,1.1-.2,0,0,0,0,.1,0,0,0,.1,0,.1,0,.1,0,.2,0,.3.1,0,0,.1.2,0,.3v.7c0,0,0,0,0,0,0,0,.1-.2.3-.3.1-.1.3-.3.5-.4.2-.1.4-.3.7-.4.3-.1.6-.2.9-.2.6,0,1.1.1,1.5.4.4.2.6.6.8,1.1,0-.1.1-.3.3-.4.1-.2.3-.3.5-.5.2-.2.5-.3.8-.4.3-.1.6-.2.9-.2.5,0,.9,0,1.2.2s.5.3.7.6c.2.3.3.6.3.9,0,.3,0,.7,0,1.1v2.4c0,.3,0,.5,0,.6,0,.2,0,.3,0,.4,0,.1.1.2.2.3.1,0,.3.1.5.1,0,0,.1,0,.1,0,0,0,0,0,0,.2s0,0,0,.1c0,0,0,0-.1,0-.1,0-.3,0-.6,0-.3,0-.6,0-.9,0s-.6,0-.9,0c-.3,0-.6,0-.8,0s0,0-.1,0c0,0,0,0,0-.1s0-.1,0-.2c0,0,0,0,.1,0,.2,0,.4,0,.6-.1.1,0,.2-.1.3-.3,0-.1,0-.2.1-.4,0-.2,0-.4,0-.6v-2c0-.3,0-.6,0-.8,0-.3,0-.6-.2-.8s-.2-.4-.4-.6c-.2-.2-.4-.2-.7-.2s-.5,0-.8.2c-.2.1-.5.3-.6.5s-.3.4-.4.7c-.1.2-.2.5-.2.7v2.3c0,.3,0,.5,0,.7,0,.2,0,.3,0,.4,0,.1.1.2.2.2.1,0,.3,0,.5.1,0,0,.1,0,.1,0,0,0,0,0,0,.2s0,0,0,.1c0,0,0,0-.1,0-.1,0-.3,0-.6,0-.3,0-.6,0-.9,0s-.6,0-.9,0c-.3,0-.5,0-.8,0s0,0-.1,0,0,0,0-.1,0-.1,0-.2c0,0,0,0,.1,0,.2,0,.4,0,.5-.1.1,0,.2-.1.3-.2,0,0,0-.2,0-.4,0-.2,0-.4,0-.7v-2c0-.3,0-.6,0-.8,0-.3,0-.6-.2-.8s-.2-.4-.4-.6c-.2-.2-.4-.2-.8-.2s-.6,0-.9.2c-.2.1-.4.3-.6.5-.2.2-.3.4-.3.7,0,.2-.1.5-.1.7v2.3Z"/>
  </g>
  <line class="cls-2" x1="210" y1="64.6" x2="124.1" y2="64.6"/>
  <line class="cls-2" x1="357.6" y1="64.6" x2="270.1" y2="64.6"/>
  <g>
    <path class="cls-1" d="M141.8,50v-.6c2.8-.6,3-1,2.3-3-.5-1.6-1.4-4.1-2.4-6.9h-8.1c-.8,2.2-1.5,4.3-2.1,6-1,2.9-.5,3.2,3,3.9v.6h-9.2v-.6c2.7-.5,3.3-.9,4.8-4.8l8.9-22.8h1c2.7,7.5,5.5,15.1,8.3,22.8,1.4,4,1.9,4.3,4.6,4.8v.6h-11.1ZM137.8,28c-1.3,3.6-2.4,6.8-3.7,10.1h7.2l-3.5-10.1Z"/>
    <path class="cls-1" d="M165.7,22.1c3.2,0,5.5.6,7.1,1.7,1.9,1.3,3,3.3,3,6,0,6-5.2,8.6-9.4,8.6s-.7,0-.9-.1l-2.7-.6v7.2c0,3.7.4,3.9,3.8,4.4v.6h-11.8v-.6c3.3-.5,3.5-.8,3.5-4.5v-17.7c0-3.8-.3-4-3.5-4.5v-.6h10.9ZM162.8,36.9c.5.2,1.5.3,2.5.3,1.9,0,5.6-.9,5.6-7.3s-2.4-6.8-5.7-6.8-1.7.2-1.9.4c-.4.3-.5.8-.5,1.8v11.7Z"/>
    <path class="cls-1" d="M207.8,22.7c-3.3.4-3.3,1.5-3.5,3.4,0,1.2-.2,2.7-.2,6.1v5.3c0,4.3-.4,7.7-2.8,10.3-1.9,2-4.5,2.8-7.7,2.8s-5.4-.6-7.3-2.2c-2.4-2-3.3-4.7-3.3-9.3v-11.3c0-4.2-.3-4.6-3.5-5.1v-.6h11.4v.6c-3.3.6-3.5.9-3.5,5.1v11.5c0,6,2.6,9.2,7.9,9.2s7.4-3.2,7.4-10.8v-5.4c0-3.4,0-5-.2-6.3-.2-2.1-.6-2.9-4.3-3.2v-.6h9.5v.6Z"/>
    <path class="cls-1" d="M225.9,28.1c-.9-3.4-2.6-5.6-6.2-5.6s-4.3,2-4.3,4.7,1.6,4.2,5.2,6.3c3.5,2.1,7,4.4,7,8.9s-4,8.3-9.5,8.3-4.4-.5-6.3-1.1c-.3-.9-.9-5.6-1-6.3h.7c.9,3.2,3.2,6.4,7.3,6.4s4.6-2.3,4.6-5.2-1.8-4.8-4.8-6.6c-3.6-2.2-6.9-4.4-6.9-8.7s3.4-7.6,8.8-7.6,4.4.5,5.4.6c.2,1.6.4,3.8.7,5.8h-.7Z"/>
    <path class="cls-1" d="M268.1,37.9c-2.4.6-2.7.9-2.7,3.2v3.9c0,1.6,0,3,.3,4.1-2.5.5-6.6,1.5-9.9,1.5-9.7,0-15.3-5.8-15.3-14.4s7.6-14.8,16.2-14.8,7.1.8,8.3.8c0,1.7.2,4.3.5,6.6h-.7c-.7-2.6-1.8-4.9-4.8-5.8-1.3-.4-2.7-.6-4.4-.6-6.1,0-9.9,4.6-9.9,12.8s2.6,14.3,10.3,14.3,2.7-.2,3.5-.7c.8-.4,1.2-1,1.2-3.2v-4.1c0-2.9-.3-3.2-3.9-3.8v-.7h11.2v.7Z"/>
    <path class="cls-1" d="M270.9,50v-.6c2.4-.4,2.6-.6,2.6-3.9v-20.5c0-2.9-.2-3.2-2.4-3.7v-.6c2-.2,4.8-.8,6.7-1.5,0,.8-.2,2.5-.2,5.9v20.3c0,3.2.1,3.4,2.4,3.9v.6h-9.1Z"/>
    <path class="cls-1" d="M292.8,31.4c5.4,0,9,4.3,9,9.3s-4.7,9.9-9,9.9c-6.4,0-9.4-4.9-9.4-9.3s5-9.8,9.3-9.8ZM292.2,32.4c-2.5,0-4,2.7-4,7.5s2,9.7,4.9,9.7,3.9-1.5,3.9-8-1.8-9.3-4.8-9.3Z"/>
    <path class="cls-1" d="M314.1,32c.9-.4,1.8-.6,2.1-.6,5,0,8.2,3.8,8.2,8.6s-4.9,10.5-10.5,10.5-4.1-.4-6.6-1.4c0-1,0-2.1,0-3.2v-20.9c0-2.9-.2-3.2-2.5-3.8v-.6c2.1-.2,4.7-.7,6.8-1.5,0,.7-.1,4.2-.1,5.8v7.9l2.5-1ZM311.6,45.9c0,.6,0,1,.2,1.4.3.8,1.8,1.9,3.7,2,2.8,0,4.3-3.1,4.3-8.1s-2.7-7.8-5.9-7.8-1.6.1-2.3.4v12.1Z"/>
    <path class="cls-1" d="M341.3,50.5c-.9,0-1.7-.3-2.2-.9-.5-.5-.8-1.1-1-1.9-1.4,1.1-3.6,2.8-4.5,2.8-3,0-5-2.5-5-5s1-3.1,2.9-3.8c2.3-.8,5.4-1.7,6.5-2.5v-2.1c0-2.8-1.6-4.3-3.2-4.3s-1.4.3-1.8.9c-.4.5-.7,1.4-1,2.8-.2.8-.6,1-1,1-1.1,0-2-1-2-1.8s.4-.9,1.2-1.4c1.8-1.2,4.6-2.6,6.3-2.9,1.6,0,2.7.5,3.6,1.1,1.6,1.3,2.1,3,2.1,5.5v7.5c0,1.9.7,2.5,1.4,2.5s.8,0,1.1-.3l.2.6-3.6,2.1ZM338,40.2c-.7.4-1.9.8-2.9,1.3-1.5.8-2.4,1.6-2.4,3.1,0,2.3,1.4,3.3,2.7,3.3s1.7-.2,2.5-1c0-2.3,0-4.4,0-6.8Z"/>
    <path class="cls-1" d="M347.1,50v-.6c2.4-.4,2.6-.6,2.6-3.9v-20.5c0-2.9-.2-3.2-2.4-3.7v-.6c2-.2,4.8-.8,6.7-1.5,0,.8-.2,2.5-.2,5.9v20.3c0,3.2.1,3.4,2.4,3.9v.6h-9.1Z"/>
  </g>
  <g>
    <path class="cls-1" d="M217.9,62.4c.8,0,1.5.2,1.9.6.3.3.6.8.6,1.4,0,1.6-1.2,2.3-2.7,2.3h-1.9v-.3c.6,0,.7,0,.7-.7v-2.3c0-.7,0-.7-.7-.7v-.3h2.1ZM217.2,65.6c0,.6.3.7.8.7.9,0,1.5-.6,1.5-1.8s-.7-1.8-1.7-1.8-.4,0-.5.1c0,0,0,.2,0,.4v2.4Z"/>
    <path class="cls-1" d="M221.6,66.7v-.3c.6,0,.7,0,.7-.7v-2.3c0-.6,0-.7-.7-.7v-.3h2.1v.3c-.6,0-.7,0-.7.7v2.3c0,.6,0,.7.7.7v.3h-2.1Z"/>
    <path class="cls-1" d="M229.5,62.7c-.5,0-.7.1-.9.7-.3.7-1.1,2.6-1.4,3.4h-.3c-.5-1.2-1.1-2.6-1.4-3.5-.2-.5-.4-.5-.8-.6v-.3h2.1v.3h-.2c-.3,0-.4.2-.2.5.2.5.6,1.5,1,2.4.2-.5.8-1.8,1-2.4.1-.3,0-.5-.3-.5h-.2v-.3h1.8v.3Z"/>
    <path class="cls-1" d="M230.3,66.7v-.3c.6,0,.7,0,.7-.7v-2.3c0-.6,0-.7-.7-.7v-.3h2.1v.3c-.6,0-.7,0-.7.7v2.3c0,.6,0,.7.7.7v.3h-2.1Z"/>
    <path class="cls-1" d="M236.2,63.6c-.2-.6-.5-1-1.1-1s-.7.3-.7.6.4.6.7.8h.2c.6.4,1.2.7,1.2,1.4,0,.8-.7,1.3-1.6,1.3s-1.1-.2-1.2-.2c0-.2-.2-.8-.2-1.2h.3c.2.6.6,1.1,1.3,1.1s.7-.3.7-.7c0-.5-.3-.7-.7-.8h-.3c-.5-.4-1.1-.7-1.1-1.4s.6-1.2,1.6-1.2.8,0,1,.1c0,.3,0,.7.2,1.1h-.3Z"/>
    <path class="cls-1" d="M237.8,66.7v-.3c.6,0,.7,0,.7-.7v-2.3c0-.6,0-.7-.7-.7v-.3h2.1v.3c-.6,0-.7,0-.7.7v2.3c0,.6,0,.7.7.7v.3h-2.1Z"/>
    <path class="cls-1" d="M243.4,62.3c1.4,0,2.3,1,2.3,2.2s-1.1,2.3-2.3,2.3-2.3-1.1-2.3-2.2,1.2-2.3,2.3-2.3ZM243.3,62.6c-.7,0-1.3.6-1.3,1.8s.6,2.1,1.5,2.1,1.3-.5,1.3-1.8-.5-2-1.5-2Z"/>
    <path class="cls-1" d="M251.9,62.7c-.5,0-.6.2-.6.5,0,.3,0,.5,0,1.1v2.5h-.4l-2.8-3.3v1.4c0,.6,0,.8,0,1.1,0,.4.2.5.7.5v.3h-1.9v-.3c.4,0,.6-.1.7-.5,0-.2,0-.4,0-1.1v-1.5c0-.1,0-.3,0-.4-.2-.2-.3-.2-.7-.3v-.3h1.4l2.6,3v-1.2c0-.6,0-.9,0-1.1,0-.3-.2-.4-.7-.5v-.3h1.8v.3Z"/>
    <path class="cls-1" d="M257.7,62.3c1.4,0,2.3,1,2.3,2.2s-1.1,2.3-2.3,2.3-2.3-1.1-2.3-2.2,1.2-2.3,2.3-2.3ZM257.6,62.6c-.7,0-1.3.6-1.3,1.8s.6,2.1,1.5,2.1,1.3-.5,1.3-1.8-.5-2-1.5-2Z"/>
    <path class="cls-1" d="M264.5,63.6c0-.3-.1-.4-.3-.6,0-.1-.2-.2-.6-.2h-.6c-.2,0-.3,0-.3.2v1.4h.7c.6,0,.6,0,.7-.6h.3v1.5h-.3c-.1-.5-.1-.6-.7-.6h-.7v.9c0,.6,0,.7.7.7v.3h-2.2v-.3c.6,0,.7,0,.7-.7v-2.3c0-.6,0-.7-.7-.7v-.3h2.5c.3,0,.9,0,1,0,0,.2,0,.7,0,1.1h-.3Z"/>
  </g>
</svg>