<?xml version="1.0" encoding="UTF-8"?>
<svg id="Layer_1" data-name="Layer 1" xmlns="http://www.w3.org/2000/svg" version="1.1" viewBox="0 0 149.6 94">
  <defs>
    <style>
      .cls-1 {
        fill: #fff;
        stroke-width: 0px;
      }
    </style>
  </defs>
  <g>
    <path class="cls-1" d="M6.8,28.5h23.9,0s38.1,0,38.1,0c.2,0,.3-.1.4-.3l7.5-22.2c0-.3-.1-.5-.4-.5H6.8c-.2,0-.4.2-.4.4v22.3c0,.2.2.4.4.4Z"/>
    <path class="cls-1" d="M6.8,58.6h51.9c.2,0,.3-.1.4-.3l1.6-4.9c0-.2,0-.4-.2-.5l-24.7-17.4c0,0-.2,0-.2,0H6.8c-.2,0-.4.2-.4.4v22.3c0,.2.2.4.4.4Z"/>
    <path class="cls-1" d="M56,65.5H6.8c-.2,0-.4.2-.4.4v22.2c0,.2.2.4.4.4h41.8c.2,0,.3-.1.4-.3l7.5-22.2c0-.3-.1-.5-.4-.5Z"/>
  </g>
  <polygon class="cls-1" points="86.7 35.5 97.1 4.2 107.3 35.5 141.5 35.5 113.9 55.8 124.4 88 97.1 68.3 69.6 88 80.3 55.8 52.5 35.5 86.7 35.5"/>
</svg>