<?xml version="1.0" encoding="UTF-8"?>
<svg id="Layer_1" data-name="Layer 1" xmlns="http://www.w3.org/2000/svg" version="1.1" viewBox="0 0 328.1 139.7">
  <defs>
    <style>
      .cls-1 {
        fill: #fff;
        stroke-width: 0px;
      }
    </style>
  </defs>
  <g id="AMU_Logo_Black_rgb" data-name="AMU Logo Black rgb">
    <g>
      <path class="cls-1" d="M154.3,39v-1.3c2.9-.4,3.3-.7,2.7-2.5s-1.5-4.2-2.5-7h-9.7c-.7,2-1.4,3.9-2,5.8-1,2.9-.6,3.3,2.9,3.6v1.3h-9.9v-1.3c2.9-.4,3.5-.7,5.1-4.7l9.4-23.7,1.4-.4c2.8,7.8,5.8,16.4,8.7,24.3,1.4,3.9,2,4.3,5,4.6v1.3h-11.1,0ZM149.9,14.7h0c-1.5,3.9-2.9,7.8-4.3,11.6h8.3s-4-11.6-4-11.6Z"/>
      <path class="cls-1" d="M192.5,39v-1.2c2.7-.3,3.2-.5,3.2-3.7v-7.6c0-3.2-1.1-5.3-4-5.3s-3.4,1-5.1,2.4c0,.5.1,1.1.1,1.9v8.8c0,2.9.4,3.1,2.9,3.4v1.2h-9.7v-1.2c2.8-.3,3.2-.5,3.2-3.5v-7.8c0-3.3-1.2-5.2-4-5.2s-3.6,1.2-4.9,2.4v10.7c0,2.9.4,3.2,2.6,3.5v1.2h-9.6v-1.2c3-.3,3.4-.5,3.4-3.5v-9.4c0-2.9-.1-3.1-2.8-3.5v-1c2-.4,4.3-1,6.3-1.9v3.7c1-.6,1.9-1.5,3.3-2.3,1.2-.7,2.3-1.3,3.7-1.3,2.2,0,4.1,1.4,5.1,3.8,1.3-1,2.6-1.9,3.8-2.6,1-.6,2.1-1.2,3.4-1.2,3.5,0,5.8,2.5,5.8,6.9v8.7c0,3,.3,3.2,2.9,3.5v1.2h-9.7.1Z"/>
      <path class="cls-1" d="M220.9,35.2c-2.9,3.5-6,4.4-7.4,4.4-5.6,0-8.8-4.5-8.8-9.7s1.1-5.9,3-7.9,4.3-3.3,6.6-3.3h0c3.8,0,6.8,3.4,6.8,6.9s-.2,1.3-1,1.5c-.7,0-6.4.6-11.9.8,0,6.2,3.6,8.7,6.8,8.7s3.5-.7,5.2-2.3l.7,1h0ZM208.5,25.9c2.5,0,5.1,0,7.7,0,.8,0,1.1-.2,1.1-.9,0-2.4-1.5-4.5-4-4.5s-4.1,1.9-4.8,5.6"/>
      <path class="cls-1" d="M230.6,23.5c1.4-2.3,3.3-4.8,5.5-4.8s2.6,1.2,2.6,2.3-.6,1.8-1.5,2.2c-.5.2-.9.2-1.2,0-.7-.6-1.2-.9-1.9-.9-1.2,0-2.6,1.3-3.6,3.9v8.3c0,3,.2,3.3,3.7,3.5v1.2h-10.4v-1.2c2.8-.3,3.1-.5,3.1-3.5v-9.4c0-3-.2-3.2-2.8-3.5v-1c2.2-.4,4.2-.9,6.4-1.8v4.9h0v-.2Z"/>
      <path class="cls-1" d="M240.8,39v-1.2c2.9-.3,3.2-.5,3.2-3.6v-9.3c0-2.8-.1-3-2.9-3.4v-1.1c2.3-.4,4.5-1,6.4-1.8v15.6c0,3.1.3,3.4,3.2,3.6v1.2h-10,.1ZM243.2,12.4c0-1.4,1.1-2.4,2.3-2.4s2.3,1,2.3,2.4-1,2.3-2.3,2.3-2.3-1.1-2.3-2.3"/>
      <path class="cls-1" d="M270,34.9c-2,2.6-5,4.6-7.7,4.6-5.7,0-9.1-4.6-9.1-9.5s1.5-6.5,4.6-8.8c2.4-1.8,5.1-2.6,6.8-2.6h0c1.9,0,3.4.6,4.1,1.2.6.5.7.9.7,1.4,0,1-1,1.9-1.5,1.9s-.5,0-.9-.5c-1.4-1.3-2.9-1.9-4.6-1.9-3,0-5.6,2.5-5.6,7.3s4.3,8.4,6.8,8.4,3.4-.5,5.5-2.5l.8,1h.1Z"/>
      <path class="cls-1" d="M286.6,39.5c-.7,0-1.6-.4-2.1-.9-.6-.6-.9-1.2-1.1-2-1.8,1.2-4,2.9-5.3,2.9-3.2,0-5.4-2.7-5.4-5.5s1.2-3.6,3.7-4.5c2.7-.9,6-2.1,7-2.9v-.8c0-3.3-1.5-5.1-3.9-5.1s-1.5.3-2,.9c-.5.6-1,1.6-1.3,3-.2.7-.7,1-1.3,1s-1.9-.9-1.9-1.9.5-1.2,1.4-1.8c1.2-.9,4.2-2.6,6.8-3.2,1.4,0,2.7.4,3.7,1.2,1.6,1.4,2,3.2,2,5.6v8.4c0,2,.8,2.7,1.6,2.7s1.2-.2,1.6-.5l.5,1.2-3.9,2.3h-.1ZM283.3,28.1c-1,.5-3.1,1.5-4.1,1.9-1.8.8-2.8,1.7-2.8,3.4s1.8,3.4,3.2,3.4,2.8-.8,3.6-1.6v-7.1h0Z"/>
      <path class="cls-1" d="M304.6,39v-1.2c2.7-.3,3-.6,3-3.8v-7.6c0-3.1-1.1-5.2-4.1-5.2s-3.6,1.1-4.9,2.3v10.6c0,3.1.3,3.3,2.9,3.5v1.2h-9.8v-1.2c3.1-.3,3.3-.5,3.3-3.5v-9.3c0-2.9-.3-3.1-2.7-3.5v-1c2.2-.4,4.3-1,6.3-1.8v3.6c.9-.7,1.9-1.4,3-2.1,1.3-.8,2.4-1.4,3.8-1.4,3.6,0,5.8,2.5,5.8,6.9v8.7c0,3.1.3,3.3,2.9,3.5v1.2h-9.5,0Z"/>
      <path class="cls-1" d="M162,80.6v-1.3c3.7-.3,3.9-.6,3.9-5.4l-.2-18.5h-.2l-11.1,24.8h-.9l-10.2-24.2h0l-.7,12.9c-.2,3.8-.2,5.7-.1,7.5,0,2.2,1.1,2.5,4.2,2.8v1.3h-10.6v-1.3c2.7-.3,3.5-.8,3.9-2.7.3-1.6.5-3.5.9-8.3l.6-9.4c.4-5.9.2-6.1-3.9-6.5v-1.3h7.4l10.3,22.7,10.5-22.7h7.7v1.3c-4,.4-4.3.5-4.2,5.1l.4,16.4c.1,4.8.3,5.1,4.2,5.4v1.3h-11.9,0Z"/>
      <path class="cls-1" d="M176.4,80.6v-1.2c2.9-.3,3.2-.5,3.2-3.6v-9.3c0-2.8-.1-3-2.9-3.4v-1.1c2.3-.4,4.5-1,6.4-1.8v15.6c0,3.1.3,3.4,3.2,3.6v1.2h-10,.1ZM178.8,54c0-1.4,1.1-2.4,2.3-2.4s2.3,1,2.3,2.4-1,2.3-2.3,2.3-2.3-1.1-2.3-2.3"/>
      <path class="cls-1" d="M188,80.6v-1.2c2.9-.3,3.3-.5,3.3-3.5v-21.4c0-3.1-.3-3.2-3.1-3.4v-1.1c2.4-.3,5.2-1,6.7-1.6v27.6c0,3,.4,3.3,3.3,3.5v1.2h-10.2Z"/>
      <path class="cls-1" d="M200.3,80.6v-1.2c2.9-.3,3.2-.5,3.2-3.6v-9.3c0-2.8-.1-3-2.9-3.4v-1.1c2.3-.4,4.5-1,6.4-1.8v15.6c0,3.1.3,3.4,3.2,3.6v1.2h-10,.1ZM202.7,54c0-1.4,1.1-2.4,2.3-2.4s2.3,1,2.3,2.4-1,2.3-2.3,2.3-2.3-1.1-2.3-2.3"/>
      <path class="cls-1" d="M220.8,80.6c-.8.4-1.5.6-1.9.6-2.9,0-4.4-1.8-4.4-5.4v-13.1h-3.1l-.2-.5,1.3-1.3h2v-3.3l2.9-3h.6v6.3h5.1c.5.5.3,1.5-.3,1.8h-4.8v11.6c0,3.7,1.5,4.3,2.7,4.3s2.2-.5,2.8-.8l.4,1.2s-3.1,1.6-3.1,1.6Z"/>
      <path class="cls-1" d="M240.3,81.2c-.7,0-1.6-.4-2.1-.9-.6-.6-.9-1.2-1.1-2-1.8,1.2-4,2.9-5.3,2.9-3.2,0-5.4-2.7-5.4-5.5s1.2-3.6,3.7-4.5c2.7-.9,6-2.1,7-2.9v-.8c0-3.3-1.5-5.1-3.9-5.1s-1.5.3-2,.9-1,1.6-1.3,3c-.2.7-.7,1-1.3,1s-1.9-.9-1.9-1.9.5-1.2,1.4-1.8c1.2-.9,4.2-2.6,6.8-3.2,1.4,0,2.7.4,3.7,1.2,1.6,1.4,2,3.2,2,5.6v8.4c0,2,.8,2.7,1.6,2.7s1.2-.2,1.6-.5l.5,1.2-3.9,2.3h-.1ZM237,69.8c-1,.5-3.1,1.5-4.1,1.9-1.8.8-2.8,1.7-2.8,3.4s1.8,3.4,3.2,3.4,2.8-.8,3.6-1.6v-7.1h.1Z"/>
      <path class="cls-1" d="M252.3,65.1c1.4-2.3,3.3-4.8,5.5-4.8s2.6,1.2,2.6,2.3-.6,1.8-1.5,2.2c-.5.2-.9.2-1.2,0-.7-.6-1.2-.9-1.9-.9-1.2,0-2.6,1.3-3.6,3.9v8.3c0,3,.2,3.3,3.7,3.5v1.2h-10.4v-1.2c2.8-.3,3.1-.5,3.1-3.5v-9.4c0-3-.2-3.2-2.8-3.5v-1c2.2-.4,4.2-.9,6.4-1.8v4.9h0v-.2Z"/>
      <path class="cls-1" d="M283.8,62c-2.4.4-2.8.7-4,3.3-1.2,2.4-2.6,6.2-5.7,13.6-3,7.3-4,9.8-4.7,12.2-.2.9-.8,1.1-1.5,1.1-1.3,0-2.5-1.1-2.5-2.2s.4-1.1,1.1-1.7c1.5-.9,2.3-2,3.4-4,.8-1.6,1.2-2.5,1.4-3.1.2-.7.2-1.3,0-2-1.8-5.2-3.9-10.6-5.2-13.9-1-2.5-1.4-3.1-3.9-3.4v-1.2h9.2v1.2c-2.1.3-2.3.8-1.7,2.5l4.1,11.3c1.3-3.1,3.3-8.4,4.2-11.3.5-1.7.3-2.2-2.4-2.5v-1.2h8.2v1.2h0Z"/>
      <path class="cls-1" d="M167.4,94.1c-2.7.2-3.8.8-3.9,2.7-.1,1.2-.3,3.2-.3,7.3v3.7c0,5.3-.8,9.2-3.4,12-2.1,2.2-5.2,3.1-8.2,3.1s-5.3-.6-7.3-2.2c-2.7-2.1-4-5.4-4-10.8v-11.3c0-4.1-.4-4.3-3.9-4.6v-1.3h11.7v1.3c-3.5.2-3.9.5-3.9,4.6v10.3c0,7.3,2.9,11.5,8.5,11.5s8.6-5.5,8.6-13v-3.4c0-4.2-.1-6.1-.3-7.5-.2-1.8-1.2-2.3-4.4-2.5v-1.3h10.8v1.3h0Z"/>
      <path class="cls-1" d="M180.6,122.3v-1.2c2.7-.3,3-.6,3-3.8v-7.6c0-3.1-1.1-5.2-4.1-5.2s-3.6,1.1-4.9,2.3v10.6c0,3.1.3,3.3,2.9,3.5v1.2h-9.8v-1.2c3.1-.3,3.3-.5,3.3-3.5v-9.3c0-2.9-.3-3.1-2.7-3.5v-1c2.2-.4,4.3-1,6.3-1.8v3.6c.9-.7,1.9-1.4,3-2.1,1.3-.8,2.4-1.4,3.8-1.4,3.6,0,5.8,2.5,5.8,6.9v8.7c0,3.1.3,3.3,2.9,3.5v1.2h-9.5Z"/>
      <path class="cls-1" d="M192.6,122.3v-1.2c2.9-.3,3.2-.5,3.2-3.6v-9.3c0-2.8-.1-3-2.9-3.4v-1.1c2.3-.4,4.5-1,6.4-1.8v15.6c0,3.1.3,3.4,3.2,3.6v1.2h-10,.1ZM195,95.7c0-1.4,1.1-2.4,2.3-2.4s2.3,1,2.3,2.4-1,2.3-2.3,2.3-2.3-1.1-2.3-2.3"/>
      <path class="cls-1" d="M224.6,103.6c-2.4.3-2.8.7-4,3.4-1.5,3.4-3.9,9-6.4,15.7h-1.3c-2-5.4-4.1-10.6-6.3-15.9-1-2.6-1.4-2.9-3.8-3.3v-1.2h9.3v1.2c-2.4.3-2.5.6-1.8,2.6,1.1,3.2,3,8,4.3,11.2,1.6-3.8,3-7.8,4-10.8.7-2.2.5-2.7-2.1-3v-1.2h8.1v1.2h0Z"/>
      <path class="cls-1" d="M241.5,118.5c-2.9,3.5-6,4.4-7.4,4.4-5.6,0-8.8-4.5-8.8-9.7s1.1-5.9,3-7.9,4.3-3.3,6.6-3.3h0c3.8,0,6.8,3.4,6.8,6.9s-.2,1.3-1,1.5c-.7.1-6.4.6-11.9.8,0,6.2,3.6,8.7,6.8,8.7s3.5-.7,5.2-2.3l.7,1h0ZM229,109.2c2.5,0,5.1,0,7.7-.1.8,0,1.1-.2,1.1-.9,0-2.4-1.5-4.5-4-4.5s-4.1,1.9-4.8,5.6"/>
      <path class="cls-1" d="M251.1,106.8c1.4-2.3,3.3-4.8,5.5-4.8s2.6,1.2,2.6,2.3-.6,1.8-1.5,2.2c-.5.2-.9.2-1.2,0-.7-.6-1.2-.9-1.9-.9-1.2,0-2.6,1.3-3.6,3.9v8.3c0,3,.2,3.3,3.7,3.5v1.2h-10.4v-1.2c2.8-.3,3.1-.5,3.1-3.5v-9.4c0-3-.2-3.2-2.8-3.5v-1c2.2-.4,4.2-.9,6.4-1.8v4.9h0v-.2Z"/>
      <path class="cls-1" d="M272.7,107.9c-.9-2.7-2.4-4.5-4.7-4.5s-2.9,1.3-2.9,3.1,1.8,3,3.8,3.9c3.4,1.4,5.8,3,5.8,6.2s-3.9,6.3-7.5,6.3-4.4-.9-5.2-1.5c-.3-.6-.8-3.7-.8-5.3l1.2-.2c.8,3,2.8,5.6,5.5,5.6s3.2-1.2,3.2-3.2-1.3-3.1-3.6-4.1c-2.7-1.2-5.7-2.8-5.7-6.2s2.7-5.9,6.9-5.9,3.1.4,4,.8c.4,1,.9,3.7,1,4.8l-1.1.3h.1Z"/>
      <path class="cls-1" d="M277.5,122.3v-1.2c2.9-.3,3.2-.5,3.2-3.6v-9.3c0-2.8-.1-3-2.9-3.4v-1.1c2.3-.4,4.5-1,6.4-1.8v15.6c0,3.1.3,3.4,3.2,3.6v1.2h-10,0ZM279.9,95.7c0-1.4,1.1-2.4,2.3-2.4s2.3,1,2.3,2.4-1,2.3-2.3,2.3-2.3-1.1-2.3-2.3"/>
      <path class="cls-1" d="M298,122.2c-.8.4-1.5.6-1.9.6-2.9,0-4.4-1.8-4.4-5.4v-13.1h-3.1l-.2-.5,1.3-1.3h2v-3.3l2.9-3h.6v6.3h5.1c.5.5.3,1.4-.3,1.8h-4.8v11.6c0,3.7,1.5,4.3,2.7,4.3s2.2-.5,2.8-.8l.4,1.2-3.1,1.6h0Z"/>
      <path class="cls-1" d="M323.2,103.6c-2.4.4-2.8.7-4,3.3-1.2,2.4-2.6,6.2-5.7,13.6-3,7.3-4,9.8-4.7,12.2-.2.9-.8,1.1-1.5,1.1-1.3,0-2.5-1.1-2.5-2.2s.4-1.1,1.1-1.7c1.5-.9,2.3-2,3.4-4,.8-1.6,1.2-2.5,1.4-3.1.2-.7.2-1.3,0-2-1.8-5.2-3.9-10.7-5.2-13.9-1-2.5-1.4-3.1-3.9-3.4v-1.2h9.2v1.2c-2.1.3-2.3.8-1.7,2.5l4.1,11.3c1.3-3.1,3.3-8.4,4.2-11.3.5-1.7.3-2.2-2.4-2.5v-1.2h8.2v1.2h0Z"/>
    </g>
  </g>
  <g>
    <path class="cls-1" d="M31.7,93.4l7.8,28.8h-14.1l-.7-5.2h-4.9l-.7,5.2H4.8l7-28.8h19.9ZM24.4,112c-.6-3.3-1.3-7.4-2-12.2-1.4,5.6-2.2,9.7-2.6,12.2h4.6Z"/>
    <path class="cls-1" d="M84.5,93.4v28.8h-12v-19.5l-4.8,19.5h-8.4l-5-19.1v19.1h-12.1v-28.8h17.7c.5,1.7,1,3.8,1.6,6.1l1.9,7.3,3.2-13.5h17.9Z"/>
    <path class="cls-1" d="M118.9,93.4v19.3c0,2.2,0,3.7-.4,4.6-.3.9-1,1.8-2.3,2.7s-3,1.6-5.1,2.1-4.6.7-7.4.7-6-.3-8.4-.8c-2.4-.6-4.2-1.3-5.4-2.2-1.2-.9-1.9-1.9-2.1-2.9s-.3-3.2-.3-6.4v-17.1h13.7v21.6c0,1.3,0,2.1.4,2.4.3.3.8.5,1.5.5s1.4-.2,1.7-.6c.3-.4.4-1.3.4-2.7v-21.3h13.8,0Z"/>
    <polygon class="cls-1" points="53.7 38.7 63.5 8.8 73.2 38.7 105.9 38.7 79.5 58 89.8 88.7 63.5 69.8 37.3 88.7 47.7 58 21.1 38.7 53.7 38.7"/>
  </g>
</svg>